<svg id="레이어_1" data-name="레이어 1" xmlns="http://www.w3.org/2000/svg" viewBox="0 0 1080 1080"><defs><style>.cls-1{fill:#e50012;}.cls-2{fill:#fff;}</style></defs><path class="cls-1" d="M1080,540c0,298.23-241.79,540-540,540S0,838.25,0,540,241.79,0,540,0,1080,241.92,1080,540Z"/><path class="cls-2" d="M352.49,505.44c-12.66-4.32-28.45,3.43-38.88,12.14a3.24,3.24,0,0,1-3.5.69,3.39,3.39,0,0,1-1.92-3.17s-.45-6-.45-6.18a6.47,6.47,0,0,1,2-5.21c29.61-27.71,43.63-53.44,43-78.6,0-4.71-1-10.61-4.79-12.16-4.47-1.84-12.59,2.37-21.43,11l-1.88,1.95-16,17.28a23.31,23.31,0,0,0-4.93,11.42A406.82,406.82,0,0,0,316.29,601c.73,2.05,1.17,2.85,2.33,3.44a2.94,2.94,0,0,0,2.16.15l19.27-9.49.52-.21c15-7,39.16-23.89,31.92-59C369.12,519.11,362.32,508.9,352.49,505.44Z"/><path class="cls-2" d="M540,261.36c-153.89,0-278.64,124.75-278.64,278.64S386.11,818.64,540,818.64,818.64,693.89,818.64,540,693.89,261.36,540,261.36ZM424.22,545.29a112.23,112.23,0,0,1-4.08,22.34,69.19,69.19,0,0,1-21.6,33c-7.6,6.48-15.51,9.64-23.87,13l-11.79,5.19-9.59,4.32-9.85,4.32-2.55,1.27c-9.52,4.95-20.35,10.5-31.79,5.9-10.8-4.32-15.12-16-16.57-20.87-11.88-41.42-15.36-88.06-10-134.87,3.28-27.49,20.74-54,25.27-59.48l16.55-18.62c27.8-28.3,45.1-30.05,54.69-26.55s15.55,13.37,16.57,26.66c.15,2,.26,3.91.26,5.87,0,21.32-9.94,42.49-28.26,62A43.45,43.45,0,0,1,396.42,474c9.21,5.49,21.3,17.11,26.55,41.32A107.25,107.25,0,0,1,424.22,545.29Zm249.7-45.7a27.94,27.94,0,0,1-9.5,21.81c-17.74,15.32-40.76,26.1-68.43,32.08-46.94,9.91-90.92,3.13-123.88-19.12-28.08-19-46.33-48.1-52.66-84a128.15,128.15,0,0,1,23-99.47c20.07-27,50.44-45.36,85.54-51.84a146.78,146.78,0,0,1,70.37,4.84c2.53.86,11.45,4.77,16.87,23.33,1.71,7.73-6.16,5.46-6.16,5.46a112.42,112.42,0,0,0-59.31-7.28c-26.5,4-48.51,16.83-62,36.12S470,405.17,475.31,430.79c12.31,59.21,62.05,89.38,126.64,77,25.23-5,45.36-15.66,58.62-31a7.46,7.46,0,0,1,4.32-2.68c2.66,0,4.32,1.12,5.36,4.92C674.2,494.64,673.92,499.59,673.92,499.59Z"/></svg>