<svg width="18" height="16" viewBox="0 0 18 16" fill="none" xmlns="http://www.w3.org/2000/svg">
<path d="M15.3004 1.5886C15.1484 1.42765 14.9393 1.33264 14.7181 1.32391H14.2946V0.794535C14.2983 0.689261 14.2803 0.584353 14.2417 0.486341C14.2031 0.388328 14.1447 0.299308 14.0703 0.224823C13.9958 0.150337 13.9068 0.0919799 13.8087 0.053383C13.7107 0.0147861 13.6058 -0.00322428 13.5005 0.000472987H7.14805C7.04278 -0.00322428 6.93787 0.0147861 6.83986 0.053383C6.74184 0.0919799 6.65282 0.150337 6.57834 0.224823C6.50385 0.299308 6.4455 0.388328 6.4069 0.486341C6.3683 0.584353 6.35029 0.689261 6.35399 0.794535V7.94109C6.35029 8.04637 6.3683 8.15128 6.4069 8.24929C6.4455 8.3473 6.50385 8.43632 6.57834 8.51081C6.65282 8.58529 6.74184 8.64365 6.83986 8.68224C6.93787 8.72084 7.04278 8.73885 7.14805 8.73516H7.75683C7.87202 9.11582 8.10663 9.44933 8.426 9.68636C8.74536 9.92339 9.13252 10.0514 9.53024 10.0514C9.92795 10.0514 10.3151 9.92339 10.6345 9.68636C10.9538 9.44933 11.1885 9.11582 11.3036 8.73516H13.0506C13.1658 9.11582 13.4004 9.44933 13.7197 9.68636C14.0391 9.92339 14.4263 10.0514 14.824 10.0514C15.2217 10.0514 15.6089 9.92339 15.9282 9.68636C16.2476 9.44933 16.4822 9.11582 16.5974 8.73516H17.2062C17.3114 8.73885 17.4164 8.72084 17.5144 8.68224C17.6124 8.64365 17.7014 8.58529 17.7759 8.51081C17.8504 8.43632 17.9087 8.3473 17.9473 8.24929C17.9859 8.15128 18.0039 8.04637 18.0002 7.94109V4.5531L15.3004 1.5886ZM14.5858 2.38266L16.518 4.50016H14.2946V2.38266H14.5858ZM9.53024 8.99984C9.37319 8.99984 9.21966 8.95327 9.08908 8.86602C8.9585 8.77877 8.85672 8.65475 8.79662 8.50965C8.73652 8.36456 8.72079 8.2049 8.75143 8.05087C8.78207 7.89683 8.8577 7.75535 8.96875 7.64429C9.0798 7.53324 9.22129 7.45762 9.37532 7.42698C9.52936 7.39634 9.68902 7.41206 9.83411 7.47216C9.97921 7.53226 10.1032 7.63404 10.1905 7.76462C10.2777 7.89521 10.3243 8.04873 10.3243 8.20578C10.328 8.31105 10.31 8.41596 10.2714 8.51398C10.2328 8.61199 10.1744 8.70101 10.0999 8.77549C10.0255 8.84998 9.93644 8.90834 9.83843 8.94693C9.74042 8.98553 9.63551 9.00354 9.53024 8.99984ZM14.824 8.99984C14.6669 8.99984 14.5134 8.95327 14.3828 8.86602C14.2522 8.77877 14.1505 8.65475 14.0904 8.50965C14.0303 8.36456 14.0145 8.2049 14.0452 8.05087C14.0758 7.89683 14.1514 7.75535 14.2625 7.64429C14.3735 7.53324 14.515 7.45762 14.6691 7.42698C14.8231 7.39634 14.9828 7.41206 15.1279 7.47216C15.273 7.53226 15.397 7.63404 15.4842 7.76462C15.5715 7.89521 15.618 8.04873 15.618 8.20578C15.6217 8.31105 15.6037 8.41596 15.5651 8.51398C15.5265 8.61199 15.4682 8.70101 15.3937 8.77549C15.3192 8.84998 15.2302 8.90834 15.1322 8.94693C15.0342 8.98553 14.9293 9.00354 14.824 8.99984Z" fill="#4F5965"/>
<path d="M8.9475 7.14666C8.79546 6.98571 8.58643 6.8907 8.36519 6.88197H7.94169V6.3526C7.94539 6.24732 7.92738 6.14241 7.88878 6.0444C7.85019 5.94639 7.79183 5.85737 7.71734 5.78288C7.64286 5.7084 7.55384 5.65004 7.45582 5.61144C7.35781 5.57285 7.2529 5.55484 7.14763 5.55853H5.26835C4.6946 5.04259 3.94891 4.75941 3.17732 4.76447C2.33493 4.76447 1.52704 5.09911 0.931373 5.69477C0.335711 6.29043 0.00107194 7.09833 0.00107194 7.94072C-0.00327824 8.03852 0.00562542 8.13646 0.0275406 8.23188H0.00107194V13.4992C-0.00262533 13.6044 0.015385 13.7093 0.0539819 13.8073C0.0925788 13.9054 0.150936 13.9944 0.225422 14.0689C0.299907 14.1434 0.388927 14.2017 0.48694 14.2403C0.584952 14.2789 0.68986 14.2969 0.795134 14.2932H1.40391C1.5191 14.6739 1.75372 15.0074 2.07308 15.2444C2.39245 15.4814 2.77961 15.6094 3.17732 15.6094C3.57503 15.6094 3.96219 15.4814 4.28156 15.2444C4.60092 15.0074 4.83554 14.6739 4.95073 14.2932H6.69766C6.81285 14.6739 7.04746 15.0074 7.36683 15.2444C7.68619 15.4814 8.07335 15.6094 8.47107 15.6094C8.86878 15.6094 9.25594 15.4814 9.57531 15.2444C9.89467 15.0074 10.1293 14.6739 10.2445 14.2932H10.8533C10.9585 14.2969 11.0634 14.2789 11.1614 14.2403C11.2595 14.2017 11.3485 14.1434 11.423 14.0689C11.4975 13.9944 11.5558 13.9054 11.5944 13.8073C11.633 13.7093 11.651 13.6044 11.6473 13.4992V10.1112L8.9475 7.14666ZM8.23285 7.94072L10.1651 10.0582H7.94169V7.94072H8.23285ZM3.17732 5.82322C3.59612 5.82322 4.00552 5.94741 4.35374 6.18008C4.70196 6.41276 4.97337 6.74347 5.13363 7.13039C5.2939 7.51731 5.33584 7.94307 5.25413 8.35382C5.17243 8.76458 4.97076 9.14188 4.67462 9.43802C4.37848 9.73415 4.00118 9.93583 3.59042 10.0175C3.17967 10.0992 2.75391 10.0573 2.36699 9.89703C1.98007 9.73676 1.64936 9.46536 1.41668 9.11714C1.18401 8.76892 1.05982 8.35952 1.05982 7.94072C1.05982 7.37912 1.28291 6.84053 1.68002 6.44342C2.07713 6.04631 2.61572 5.82322 3.17732 5.82322ZM3.17732 14.5579C3.02027 14.5579 2.86675 14.5113 2.73616 14.4241C2.60558 14.3368 2.5038 14.2128 2.4437 14.0677C2.3836 13.9226 2.36788 13.763 2.39852 13.6089C2.42915 13.4549 2.50478 13.3134 2.61583 13.2024C2.72689 13.0913 2.86837 13.0157 3.02241 12.985C3.17644 12.9544 3.3361 12.9701 3.48119 13.0302C3.62629 13.0903 3.75031 13.1921 3.83756 13.3227C3.92481 13.4533 3.97138 13.6068 3.97138 13.7638C3.97508 13.8691 3.95707 13.974 3.91847 14.072C3.87988 14.17 3.82152 14.2591 3.74703 14.3336C3.67255 14.408 3.58353 14.4664 3.48551 14.505C3.3875 14.5436 3.28259 14.5616 3.17732 14.5579ZM8.47107 14.5579C8.31402 14.5579 8.16049 14.5113 8.02991 14.4241C7.89933 14.3368 7.79755 14.2128 7.73745 14.0677C7.67735 13.9226 7.66162 13.763 7.69226 13.6089C7.7229 13.4549 7.79853 13.3134 7.90958 13.2024C8.02063 13.0913 8.16212 13.0157 8.31615 12.985C8.47019 12.9544 8.62985 12.9701 8.77494 13.0302C8.92004 13.0903 9.04405 13.1921 9.13131 13.3227C9.21856 13.4533 9.26513 13.6068 9.26513 13.7638C9.26883 13.8691 9.25082 13.974 9.21222 14.072C9.17362 14.17 9.11527 14.2591 9.04078 14.3336C8.96629 14.408 8.87727 14.4664 8.77926 14.505C8.68125 14.5436 8.57634 14.5616 8.47107 14.5579Z" fill="#4F5965"/>
<path d="M4.76594 7.94066C4.76594 7.80026 4.71016 7.66562 4.61089 7.56634C4.51161 7.46706 4.37696 7.41129 4.23656 7.41129H3.70719V6.88191C3.70719 6.74151 3.65141 6.60687 3.55214 6.50759C3.45286 6.40831 3.31821 6.35254 3.17781 6.35254C3.03741 6.35254 2.90276 6.40831 2.80349 6.50759C2.70421 6.60687 2.64844 6.74151 2.64844 6.88191V8.47004H4.23656C4.37696 8.47004 4.51161 8.41426 4.61089 8.31499C4.71016 8.21571 4.76594 8.08106 4.76594 7.94066Z" fill="#4F5965"/>
</svg>
