<!DOCTYPE svg PUBLIC "-//W3C//DTD SVG 1.1//EN" "http://www.w3.org/Graphics/SVG/1.1/DTD/svg11.dtd">
<!-- Uploaded to: SVG Repo, www.svgrepo.com, Transformed by: SVG Repo Mixer Tools -->
<svg width="800px" height="800px" viewBox="0 0 1024 1024" class="icon" version="1.1" xmlns="http://www.w3.org/2000/svg" fill="#000000">
<g id="SVGRepo_bgCarrier" stroke-width="0"/>
<g id="SVGRepo_tracerCarrier" stroke-linecap="round" stroke-linejoin="round"/>
<g id="SVGRepo_iconCarrier">
<path d="M512 512m-480 0a480 480 0 1 0 960 0 480 480 0 1 0-960 0Z" fill="#F3F4F6"/>
<path d="M224 364.8c0-25.6 19.2-44.8 51.2-44.8h480c25.6 0 51.2 19.2 51.2 44.8v288c0 25.6-19.2 44.8-51.2 44.8H275.2c-25.6 0-51.2-19.2-51.2-44.8V364.8z" fill="#929AA6"/>
<path d="M224 390.4h576v70.4h-576z" fill="#F3F4F6"/>
<path d="M633.6 608c0-12.8 12.8-25.6 25.6-25.6h70.4c12.8 0 25.6 12.8 25.6 25.6v25.6c0 12.8-12.8 25.6-25.6 25.6h-70.4c-12.8 0-25.6-12.8-25.6-25.6v-25.6z" fill="#FFFFFF"/>
</g>
</svg>