<svg width="25" height="17" viewBox="0 0 25 17" fill="none" xmlns="http://www.w3.org/2000/svg">
<path d="M7.1924 14.2352H15.1541V1H1V14.2352H3.65389" stroke="black" stroke-width="2" stroke-miterlimit="10" stroke-linecap="round" stroke-linejoin="round"/>
<path d="M19.5777 16.0001C20.5549 16.0001 21.347 15.21 21.347 14.2354C21.347 13.2608 20.5549 12.4707 19.5777 12.4707C18.6006 12.4707 17.8085 13.2608 17.8085 14.2354C17.8085 15.21 18.6006 16.0001 19.5777 16.0001Z" stroke="black" stroke-width="2" stroke-miterlimit="10" stroke-linecap="round" stroke-linejoin="round"/>
<path d="M5.42282 16.0001C6.39996 16.0001 7.19208 15.21 7.19208 14.2354C7.19208 13.2608 6.39996 12.4707 5.42282 12.4707C4.44569 12.4707 3.65356 13.2608 3.65356 14.2354C3.65356 15.21 4.44569 16.0001 5.42282 16.0001Z" stroke="black" stroke-width="2" stroke-miterlimit="10" stroke-linecap="round" stroke-linejoin="round"/>
<path d="M15.1537 14.2351V4.5293H20.4615L24 8.94105V14.2351H21.3461" stroke="black" stroke-width="2" stroke-miterlimit="10" stroke-linecap="round" stroke-linejoin="round"/>
</svg>
