<svg width="15" height="13" viewBox="0 0 15 13" fill="none" xmlns="http://www.w3.org/2000/svg">
<path d="M11.2673 2.0006C11.0758 1.79791 10.8125 1.67825 10.5339 1.66726H10.0006V1.0006C10.0053 0.86802 9.98257 0.735904 9.93396 0.612472C9.88536 0.48904 9.81186 0.376933 9.71806 0.28313C9.62426 0.189327 9.51215 0.115835 9.38872 0.0672278C9.26529 0.0186208 9.13317 -0.00406049 9.0006 0.000595655H1.0006C0.86802 -0.00406049 0.735904 0.0186208 0.612472 0.0672278C0.48904 0.115835 0.376933 0.189327 0.28313 0.28313C0.189327 0.376933 0.115835 0.48904 0.0672277 0.612472C0.0186207 0.735904 -0.00406049 0.86802 0.000595656 1.0006V10.0006C-0.00406049 10.1332 0.0186207 10.2653 0.0672277 10.3887C0.115835 10.5122 0.189327 10.6243 0.28313 10.7181C0.376933 10.8119 0.48904 10.8854 0.612472 10.934C0.735904 10.9826 0.86802 11.0053 1.0006 11.0006H1.76726C1.91232 11.48 2.20779 11.9 2.60998 12.1985C3.01217 12.497 3.49974 12.6582 4.0006 12.6582C4.50146 12.6582 4.98902 12.497 5.39122 12.1985C5.79341 11.9 6.08887 11.48 6.23393 11.0006H8.43393C8.57899 11.48 8.87445 11.9 9.27664 12.1985C9.67883 12.497 10.1664 12.6582 10.6673 12.6582C11.1681 12.6582 11.6557 12.497 12.0579 12.1985C12.4601 11.9 12.7555 11.48 12.9006 11.0006H13.6673C13.7998 11.0053 13.932 10.9826 14.0554 10.934C14.1788 10.8854 14.2909 10.8119 14.3847 10.7181C14.4785 10.6243 14.552 10.5122 14.6006 10.3887C14.6492 10.2653 14.6719 10.1332 14.6673 10.0006V5.73393L11.2673 2.0006ZM10.3673 3.0006L12.8006 5.66726H10.0006V3.0006H10.3673ZM4.0006 11.3339C3.80281 11.3339 3.60947 11.2753 3.44503 11.1654C3.28058 11.0555 3.1524 10.8993 3.07672 10.7166C3.00103 10.5339 2.98123 10.3328 3.01981 10.1388C3.0584 9.94486 3.15364 9.76667 3.29349 9.62682C3.43334 9.48697 3.61152 9.39173 3.80551 9.35314C3.99949 9.31456 4.20055 9.33436 4.38328 9.41005C4.56601 9.48574 4.72218 9.61391 4.83207 9.77836C4.94195 9.94281 5.0006 10.1361 5.0006 10.3339C5.00525 10.4665 4.98257 10.5986 4.93396 10.7221C4.88536 10.8455 4.81186 10.9576 4.71806 11.0514C4.62426 11.1452 4.51215 11.2187 4.38872 11.2673C4.26529 11.3159 4.13317 11.3386 4.0006 11.3339ZM10.6673 11.3339C10.4695 11.3339 10.2761 11.2753 10.1117 11.1654C9.94724 11.0555 9.81907 10.8993 9.74338 10.7166C9.6677 10.5339 9.64789 10.3328 9.68648 10.1388C9.72506 9.94486 9.8203 9.76667 9.96016 9.62682C10.1 9.48697 10.2782 9.39173 10.4722 9.35314C10.6662 9.31456 10.8672 9.33436 11.0499 9.41005C11.2327 9.48574 11.3889 9.61391 11.4987 9.77836C11.6086 9.94281 11.6673 10.1361 11.6673 10.3339C11.6719 10.4665 11.6492 10.5986 11.6006 10.7221C11.552 10.8455 11.4785 10.9576 11.3847 11.0514C11.2909 11.1452 11.1788 11.2187 11.0554 11.2673C10.932 11.3159 10.7998 11.3386 10.6673 11.3339Z" fill="#4F5965"/>
</svg>
