<svg width="15" height="14" viewBox="0 0 15 14" fill="none" xmlns="http://www.w3.org/2000/svg">
<path d="M11.268 3.00008C11.0765 2.79739 10.8133 2.67774 10.5347 2.66675H10.0014V2.00008C10.006 1.86751 9.98333 1.73539 9.93472 1.61196C9.88611 1.48853 9.81262 1.37642 9.71882 1.28262C9.62501 1.18881 9.51291 1.11532 9.38947 1.06672C9.26604 1.01811 9.13393 0.995428 9.00135 1.00008H6.63468C5.91214 0.350329 4.97306 -0.00628451 4.00135 8.38446e-05C2.94048 8.38446e-05 1.92307 0.421511 1.17292 1.17166C0.422777 1.9218 0.00134994 2.93922 0.00134994 4.00008C-0.00412845 4.12325 0.00708435 4.24659 0.0346832 4.36675H0.00134994V11.0001C-0.00330621 11.1327 0.019375 11.2648 0.067982 11.3882C0.116589 11.5116 0.190081 11.6237 0.283884 11.7175C0.377688 11.8114 0.489794 11.8848 0.613226 11.9335C0.736658 11.9821 0.868774 12.0047 1.00135 12.0001H1.76802C1.91307 12.4795 2.20854 12.8995 2.61073 13.198C3.01292 13.4965 3.50049 13.6576 4.00135 13.6576C4.50221 13.6576 4.98978 13.4965 5.39197 13.198C5.79416 12.8995 6.08963 12.4795 6.23468 12.0001H8.43468C8.57974 12.4795 8.87521 12.8995 9.2774 13.198C9.67959 13.4965 10.1672 13.6576 10.668 13.6576C11.1689 13.6576 11.6564 13.4965 12.0586 13.198C12.4608 12.8995 12.7563 12.4795 12.9014 12.0001H13.668C13.8006 12.0047 13.9327 11.9821 14.0561 11.9335C14.1796 11.8848 14.2917 11.8114 14.3855 11.7175C14.4793 11.6237 14.5528 11.5116 14.6014 11.3882C14.65 11.2648 14.6727 11.1327 14.668 11.0001V6.73342L11.268 3.00008ZM10.368 4.00008L12.8014 6.66675H10.0014V4.00008H10.368ZM4.00135 1.33342C4.52877 1.33342 5.04434 1.48981 5.48287 1.78283C5.9214 2.07585 6.2632 2.49233 6.46503 2.97959C6.66686 3.46686 6.71967 4.00304 6.61678 4.52032C6.51388 5.03761 6.25991 5.51276 5.88697 5.8857C5.51403 6.25864 5.03887 6.51262 4.52159 6.61551C4.00431 6.71841 3.46813 6.6656 2.98086 6.46376C2.49359 6.26193 2.07711 5.92014 1.7841 5.4816C1.49108 5.04307 1.33468 4.5275 1.33468 4.00008C1.33468 3.29284 1.61563 2.61456 2.11573 2.11447C2.61583 1.61437 3.29411 1.33342 4.00135 1.33342ZM4.00135 12.3334C3.80357 12.3334 3.61023 12.2748 3.44578 12.1649C3.28133 12.055 3.15316 11.8988 3.07747 11.7161C3.00178 11.5334 2.98198 11.3323 3.02056 11.1383C3.05915 10.9443 3.15439 10.7662 3.29424 10.6263C3.4341 10.4865 3.61228 10.3912 3.80626 10.3526C4.00024 10.314 4.20131 10.3338 4.38403 10.4095C4.56676 10.4852 4.72294 10.6134 4.83282 10.7778C4.9427 10.9423 5.00135 11.1356 5.00135 11.3334C5.00601 11.466 4.98333 11.5981 4.93472 11.7215C4.88611 11.845 4.81262 11.9571 4.71882 12.0509C4.62501 12.1447 4.51291 12.2182 4.38947 12.2668C4.26604 12.3154 4.13393 12.3381 4.00135 12.3334ZM10.668 12.3334C10.4702 12.3334 10.2769 12.2748 10.1124 12.1649C9.948 12.055 9.81983 11.8988 9.74414 11.7161C9.66845 11.5334 9.64865 11.3323 9.68723 11.1383C9.72582 10.9443 9.82106 10.7662 9.96091 10.6263C10.1008 10.4865 10.2789 10.3912 10.4729 10.3526C10.6669 10.314 10.868 10.3338 11.0507 10.4095C11.2334 10.4852 11.3896 10.6134 11.4995 10.7778C11.6094 10.9423 11.668 11.1356 11.668 11.3334C11.6727 11.466 11.65 11.5981 11.6014 11.7215C11.5528 11.845 11.4793 11.9571 11.3855 12.0509C11.2917 12.1447 11.1796 12.2182 11.0561 12.2668C10.9327 12.3154 10.8006 12.3381 10.668 12.3334Z" fill="#4F5965"/>
<path d="M6.00065 4.00012C6.00065 3.82331 5.93041 3.65374 5.80539 3.52872C5.68036 3.40369 5.5108 3.33346 5.33398 3.33346H4.66732V2.66679C4.66732 2.48998 4.59708 2.32041 4.47206 2.19538C4.34703 2.07036 4.17746 2.00012 4.00065 2.00012C3.82384 2.00012 3.65427 2.07036 3.52925 2.19538C3.40422 2.32041 3.33398 2.48998 3.33398 2.66679V4.66679H5.33398C5.5108 4.66679 5.68036 4.59655 5.80539 4.47153C5.93041 4.3465 6.00065 4.17693 6.00065 4.00012Z" fill="#4F5965"/>
</svg>
