<svg width="25" height="22" viewBox="0 0 25 22" fill="none" xmlns="http://www.w3.org/2000/svg">
<path d="M19.5771 21C20.5543 21 21.3464 20.2214 21.3464 19.2609C21.3464 18.3004 20.5543 17.5217 19.5771 17.5217C18.6 17.5217 17.8079 18.3004 17.8079 19.2609C17.8079 20.2214 18.6 21 19.5771 21Z" stroke="black" stroke-width="2" stroke-miterlimit="10" stroke-linecap="round" stroke-linejoin="round"/>
<path d="M5.42282 21C6.39995 21 7.19208 20.2214 7.19208 19.2609C7.19208 18.3004 6.39995 17.5217 5.42282 17.5217C4.44569 17.5217 3.65356 18.3004 3.65356 19.2609C3.65356 20.2214 4.44569 21 5.42282 21Z" stroke="black" stroke-width="2" stroke-miterlimit="10" stroke-linecap="round" stroke-linejoin="round"/>
<path d="M15.1537 19.261V9.6958H20.4615L24 14.0436V19.261H21.3461" stroke="black" stroke-width="2" stroke-miterlimit="10" stroke-linecap="round" stroke-linejoin="round"/>
<path d="M6.30777 11.4348C9.23917 11.4348 11.6155 9.09888 11.6155 6.21739C11.6155 3.33591 9.23917 1 6.30777 1C3.37637 1 1 3.33591 1 6.21739C1 9.09888 3.37637 11.4348 6.30777 11.4348Z" stroke="black" stroke-width="2" stroke-miterlimit="10" stroke-linecap="round" stroke-linejoin="round"/>
<path d="M6.30774 3.60864V6.21734L8.077 5.34777" stroke="black" stroke-width="2" stroke-miterlimit="10" stroke-linecap="round" stroke-linejoin="round"/>
<path d="M1 6.21729V19.2608H3.65389" stroke="black" stroke-width="2" stroke-miterlimit="10" stroke-linecap="round" stroke-linejoin="round"/>
<path d="M7.1925 19.2608H15.1542V6.21729H11.6156" stroke="black" stroke-width="2" stroke-miterlimit="10" stroke-linecap="round" stroke-linejoin="round"/>
</svg>
