<svg id="레이어_1" data-name="레이어 1" xmlns="http://www.w3.org/2000/svg" viewBox="0 0 1080 1080"><defs><style>.cls-1{fill:#fff;}</style></defs><path d="M515.53.57C217.62,14-13,266.4.57,564.37s265.91,528.47,563.86,515.07,528.53-266,515-563.89S813.54-13,515.53.57Z"/><path class="cls-1" d="M209.82,427.47a61.29,61.29,0,0,0-61.23,61.24h0V652.54H169V488.71a40.83,40.83,0,0,1,40.82-40.83H870.18A40.83,40.83,0,0,1,911,488.71V652.54h20.41V488.71a61.3,61.3,0,0,0-61.23-61.24Z"/><path class="cls-1" d="M334.09,609.3c0,1.68-1.08,2.29-2.92,2.29H315.36c-1.81,0-2.44-.61-2.44-2.44V565.93a3,3,0,0,0-2.84-3.07,2.9,2.9,0,0,0-.51,0H267.84a2.71,2.71,0,0,0-2.93,2.45,3,3,0,0,0,0,.6v43.2c0,1.83-1.06,2.44-2.75,2.44H246c-1.53,0-2.16-.61-2.16-2.29V501.84c0-1.67.61-2.59,2.16-2.59h16.2a2.44,2.44,0,0,1,2.73,2.11,2.57,2.57,0,0,1,0,.48v41.58a2.6,2.6,0,0,0,2.27,2.91,2.29,2.29,0,0,0,.64,0h41.73c2,0,3.35-.92,3.35-2.91V501.84c0-1.67.63-2.59,2.44-2.59h15.9c1.84,0,2.92.92,2.92,2.59Z"/><path class="cls-1" d="M371.52,613.12A17.52,17.52,0,0,1,353.64,596V528.75c0-2,.75-2.91,2.59-2.91h15.29c1.51,0,2.59.92,2.59,2.91v64.5c0,1.84.76,2.74,2.9,2.74h28.08c1.83,0,3.06-.9,3.06-2.74v-64.5c0-2,.76-2.91,2.6-2.91H426a2.54,2.54,0,0,1,2.76,2.31,2.41,2.41,0,0,1,0,.6V626.1a16.58,16.58,0,0,1-1.83,7l-10.5,17a4.52,4.52,0,0,1-3.89,2.37h-2c-1.83,0-2.59-1.06-2.59-2.74V606.6c0-1.82-1.08-2.59-2.76-2.16l-29.34,8.25A20.54,20.54,0,0,1,371.52,613.12Z"/><path class="cls-1" d="M464.27,613a17.67,17.67,0,0,1-17.56-17.58V528.75c0-2,.76-2.91,2.59-2.91h15.45c1.36,0,2.44.92,2.44,2.91v64.5c0,1.84.9,2.59,3,2.59h28.08c1.84,0,3.07-.75,3.07-2.59v-64.5c0-2,.6-2.91,2.44-2.91h15.27a2.55,2.55,0,0,1,2.78,2.34,2.72,2.72,0,0,1,0,.57V609.3c0,1.68-1.08,2.29-2.77,2.29H503.71c-1.83,0-2.44-.61-2.44-2.44v-2.47c0-2-1.23-2.74-2.91-2.16l-29.34,8A16.18,16.18,0,0,1,464.27,613Z"/><path class="cls-1" d="M614.82,542.36v67c0,1.68-1.08,2.29-2.76,2.29H596.79c-1.84,0-2.47-.61-2.47-2.44V544.65a2.81,2.81,0,0,0-2.52-3.07H563.31a2.7,2.7,0,0,0-3.07,2.28,2.62,2.62,0,0,0,0,.79v64.48a2.16,2.16,0,0,1-1.84,2.44,3,3,0,0,1-.6,0H542.38c-1.84,0-2.62-.61-2.62-2.29V528.75c0-2,.78-2.91,2.62-2.91H557.8c1.38,0,2.44.92,2.44,2.91v2.62c0,1.68.78,2.44,3.07,1.83l29.18-8a22.26,22.26,0,0,1,4.45-.75A18,18,0,0,1,614.82,542.36Z"/><path class="cls-1" d="M631.15,595.39V556.87A19.63,19.63,0,0,1,642,538.39l16.2-9.49a18.86,18.86,0,0,1,10.69-3.06H682.9c2,0,2.9-.76,2.9-2.6V491.6c0-1.66.78-2.89,2.31-2.89h15.57c1.84,0,2.62,1.23,2.62,2.89V609.3c0,1.68-.78,2.29-2.62,2.29H688.17c-1.53,0-2.31-.61-2.31-2.44v-2.47c0-2-.9-2.74-2.89-2.16l-29.51,8a15.33,15.33,0,0,1-4.58.48A18.08,18.08,0,0,1,631.15,595.39Zm54.71-2.16V544.8c0-2.16-.9-3.22-3-3.22H654.48c-2.16,0-2.92,1.08-2.92,3.22v48.45c0,1.84.78,2.59,2.92,2.59h28.27c2.21,0,3.11-.75,3.11-2.59Z"/><path class="cls-1" d="M740.58,613a17.72,17.72,0,0,1-17.74-17.58V556.87a19.77,19.77,0,0,1,10.8-18.48L750,528.9a18.77,18.77,0,0,1,10.54-3.06h35c1.68,0,2.61.92,2.61,2.91V609.3c0,1.68-.93,2.29-2.61,2.29H780c-1.68,0-2.31-.61-2.31-2.44v-2.47c0-2-1.06-2.74-3-2.16l-29.4,8A15,15,0,0,1,740.58,613Zm37-19.72V544.8c0-2.16-1.06-3.22-3.05-3.22H746.24c-2.16,0-2.92,1.08-2.92,3.22v48.45c0,1.84.78,2.59,2.92,2.59h28.27C776.5,595.84,777.6,595.09,777.6,593.25Z"/><path class="cls-1" d="M836.24,504.15c0,1.84-1.06,2.44-2.59,2.44H818.36c-2,0-2.59-.6-2.59-2.44V491.6c0-1.66.6-2.89,2.59-2.89h15.4a2.65,2.65,0,0,1,2.6,2.71,1.09,1.09,0,0,1,0,.18Zm0,105.15c0,1.68-1.06,2.29-2.59,2.29H818.36c-2,0-2.59-.61-2.59-2.29V528.75c0-2,.6-2.91,2.59-2.91h15.4c1.53,0,2.59.92,2.59,2.91Z"/></svg>