<svg id="레이어_1" data-name="레이어 1" xmlns="http://www.w3.org/2000/svg" viewBox="0 0 1080 1080"><defs><style>.cls-1{fill:#e60012;}.cls-2{fill:#fff;}</style></defs><path class="cls-1" d="M515.53.57C217.62,14-13,266.4.57,564.37s265.91,528.47,563.86,515.07,528.53-266,515-563.89S813.54-13,515.53.57Z"/><path class="cls-2" d="M371.07,466.69c-53.05,0-84.8,32.84-84.8,73.32s31.75,73.31,84.8,73.31S456,580.48,456,540,424.2,466.69,371.07,466.69Zm0,130.86c-25.38,0-44.74-25.81-44.74-57.54s19.44-57.53,44.74-57.53,44.82,25.73,44.82,57.53S396.58,597.55,371.07,597.55Z"/><polygon class="cls-2" points="463.3 488.34 519.13 488.34 519.13 607.18 561.21 607.18 561.21 488.34 608.41 488.34 608.41 472.12 463.3 472.12 463.3 488.34"/><polygon class="cls-2" points="623.74 488.34 670.85 488.34 670.85 607.18 712.91 607.18 712.91 488.34 768.89 488.34 768.89 472.12 623.74 472.12 623.74 488.34"/><path class="cls-2" d="M202.39,582.92V472.12H162v119a16.07,16.07,0,0,0,16.07,16.07H281.39V591H210.47a8,8,0,0,1-8.08-8Z"/><path class="cls-2" d="M791.77,488.17V591.09a16.11,16.11,0,0,0,16.07,16.09H918V591.26H840.24a8.09,8.09,0,0,1-8.12-8.08h0V543.4h84.6V527.56H832.18V496.07a8.07,8.07,0,0,1,8.12-8h77.76V472.12H807.84A16.09,16.09,0,0,0,791.77,488.17Z"/></svg>