<svg width="1342" height="300" viewBox="0 0 1342 300" fill="none" xmlns="http://www.w3.org/2000/svg">
<path d="M215.965 177.75C215.209 173.153 213.969 168.754 212.171 164.672C206.32 152.122 198.245 141.645 186.151 134.6C167.356 123.592 144.617 123.713 125.991 134.932C117.584 140.072 110.689 147.374 106.168 156.189C104.688 159.153 103.461 162.298 102.435 165.504C97.5506 181.061 97.6866 202.032 106.547 216.26C109.449 220.886 113.607 224.877 118.733 226.842C123.843 228.808 129.845 228.597 134.441 225.648C140.368 221.777 141.412 214.52 140.308 208.034C138.932 199.704 137.828 191.584 140.897 183.496C141.896 180.849 143.227 178.37 145.267 176.465C146.477 175.316 147.913 174.393 149.425 173.622C152.645 172.065 156.275 171.34 159.812 171.914C165.965 172.957 171.031 177.705 173.752 183.314C176.489 188.908 177.229 195.274 177.517 201.472C178.832 228.657 172.347 256.794 165.407 282.905C164.665 285.597 163.955 288.258 163.199 290.918C162.595 292.99 161.567 295.621 162.865 297.632C163.425 298.509 164.319 299.084 165.285 299.492C169.307 301.094 172.604 298.645 175.295 295.908C191.215 279.881 201.451 259.214 208.375 237.985C211.007 230.048 213.275 221.989 214.772 213.718C216.828 202.516 217.977 189.618 215.965 177.75ZM329.993 52.2222C329.993 48.1395 326.349 45.4635 322.495 45.6155C318.579 45.7209 314.904 47.7769 311.305 49.1222C241.243 75.7782 162.243 80.8142 88.46 70.2009C75.776 68.3555 63.0293 65.8315 50.3293 63.8355C42.376 62.5955 34.5146 60.8115 26.4866 60.1915C19.6826 59.6622 11.1706 59.4209 5.61997 64.1675C-1.62003 70.4582 -1.15337 82.4022 3.0053 90.2635C7.9653 99.7289 16.6426 106.805 25.6693 112.172C34.4546 117.404 44.9013 122.982 55.3946 122.318C83.608 120.533 111.744 117.766 139.76 114.153C187.599 107.969 237.733 102.088 282.624 83.5515C297.365 77.4889 311.835 69.9129 324.444 60.1155C326.683 58.4222 329.993 55.5635 329.993 52.2222Z" fill="#009692"/>
<path d="M129.083 28.2427C129.083 43.4533 141.419 55.776 156.6 55.776C171.855 55.776 184.192 43.4533 184.192 28.2427C184.192 25.976 183.663 23.692 182.725 21.636C180.352 16.6013 177.691 14.1827 177.963 8.19467C178.296 0.105333 167.939 0 162.344 0C156.251 0 149.811 0.816 144.261 3.58267C139.923 5.82133 136.128 9.192 133.452 13.3347C130.731 17.5533 129.217 22.5587 129.097 27.5933C129.073 27.8347 129.073 28.032 129.073 28.2427" fill="#ED2254"/>
<path d="M450.767 45.8207V20H488.821V45.8207H539.737V70.2909H513.029C519.063 77.5608 523.802 86.1618 527.335 96.0953C530.835 106.081 532.777 116.975 532.888 128.702C532.775 140.336 531.057 150.991 527.965 160.794C524.929 170.579 520.58 179.03 514.954 186.096C509.31 193.31 502.72 198.933 495.077 202.929C487.507 206.904 479.085 208.902 469.795 208.902C460.17 209.088 451.527 207.128 443.68 203.112C435.888 198.988 429.299 193.421 423.819 186.337C418.211 179.087 413.899 170.579 410.883 160.794C407.94 150.991 406.478 140.336 406.478 128.703C406.478 116.975 408.217 106.081 411.733 96.0937C415.288 86.1601 419.989 77.5608 426.023 70.2909H401V45.8207H450.767ZM469.795 70.8096C462.205 70.8096 455.802 76.1173 450.6 86.7343C445.456 97.3529 442.976 111.315 443.141 128.703C442.978 145.571 445.42 159.055 450.509 169.191C455.598 179.327 461.91 184.45 469.535 184.45C477.161 184.45 483.49 179.382 488.561 169.339C493.615 159.295 496.151 145.812 496.151 128.703C496.151 110.428 493.67 96.2226 488.728 86.0329C483.712 75.8596 477.42 70.8096 469.795 70.8096ZM600.888 119.251V266H564.203V20H600.886V94.7627H636.255V119.251H600.888ZM695.778 170.863H769.106C772.828 170.863 776.492 170.679 780.101 170.289C783.739 169.937 787.338 169.256 790.853 168.255C794.407 167.256 798.128 165.684 802.181 163.52V20.0065H838.846V94.7692H874.215V119.259H838.846V265.989H802.181V187.934C795.647 190.895 788.337 192.8 780.267 193.816C772.16 194.834 764.313 195.315 756.725 195.315H675.418C667.257 195.315 660.5 191.986 655.171 185.401C649.802 178.779 647.137 170.863 647.137 161.614V30.8829H683.858V160.802C683.858 164.094 684.839 166.571 686.82 168.256C688.836 169.976 691.854 170.863 695.778 170.863ZM951.954 119.251H887.88V94.7627H961.209C962.458 89.9251 963.471 85.0298 964.244 80.094C965.003 75.1565 965.354 70.2909 965.354 65.4269V58.1031H887.88V33.5954H1003.43V57.5453C1003.43 76.1727 1000.37 93.7987 994.263 110.391C988.192 126.925 979.939 141.648 969.407 154.522C958.932 167.433 946.383 177.994 931.965 186.225C917.659 194.473 901.964 199.561 885.103 201.595V177.05C900.335 172.556 913.642 165.046 924.932 154.522C936.259 144.054 945.274 132.236 951.954 119.251ZM1076.79 119.249V265.998H1040.15V20H1076.79V94.7627H1112.14V119.251L1076.79 119.249ZM1121.74 206.183H1342V230.671H1121.74V206.183ZM1149.16 33.5938H1315.05V58.1015H1185.9V125.41C1185.9 128.702 1186.88 131.236 1188.88 132.938C1190.9 134.676 1193.97 135.508 1198.14 135.508H1315.05V159.98H1177.74C1169.6 159.98 1162.82 156.669 1157.31 150.102C1151.94 143.426 1149.16 135.508 1149.16 126.279V33.5938Z" fill="white"/>
</svg>
