<svg width="2984" height="467" viewBox="0 0 2984 467" fill="none" xmlns="http://www.w3.org/2000/svg">
<path d="M258.688 1.81256C263.621 5.07044 265.933 9.52662 268 15.0001C268.984 20.6253 268.92 25.3044 267.812 30.9219C267.526 32.4934 267.24 34.065 266.954 35.6365C266.799 36.4659 266.644 37.2952 266.484 38.1497C259.109 77.7884 254.394 117.841 251 158C261.196 151.712 271.382 145.412 281.5 139C290.668 133.193 299.886 127.471 309.124 121.774C312.16 119.901 315.195 118.025 318.23 116.148C338.291 103.76 358.466 91.5759 378.86 79.7418C381.576 78.1656 384.289 76.5844 387 75.0001C387.899 74.4765 388.798 73.9529 389.724 73.4134C394.171 70.7911 398.36 68.157 402.312 64.8126C403.232 64.0443 404.151 63.276 405.098 62.4844C407.094 60.7754 409.081 59.0584 411.059 57.3282C431.488 39.5451 456.947 23.9861 485 25.0001C487.947 25.7799 489.454 26.2749 491.293 28.7188C493.912 37.1706 492.815 49.0628 489 57.0001C485.437 61.534 481.394 65.2841 477 69.0001C476.454 69.4627 475.908 69.9253 475.345 70.4019C445.462 95.3222 410.877 114.518 376.989 133.334C372.187 136.01 367.407 138.725 362.625 141.438C354.234 146.192 345.811 150.888 337.375 155.563C329.023 160.196 320.679 164.844 312.375 169.563C311.553 170.027 310.731 170.491 309.884 170.969C302.877 174.968 296.208 179.375 289.688 184.125C283.912 188.194 277.842 191.752 271.773 195.359C263.771 200.117 255.872 205.03 248 210C249.118 213.355 249.612 213.695 252.44 215.553C253.169 216.038 253.898 216.522 254.649 217.022C255.447 217.541 256.245 218.059 257.066 218.594C257.893 219.141 258.719 219.687 259.57 220.251C262.229 222.008 264.896 223.754 267.562 225.5C271.024 227.779 274.483 230.061 277.941 232.344C278.792 232.904 279.643 233.464 280.519 234.041C299.041 246.261 317.349 258.89 334.574 272.898C335.178 273.385 335.781 273.871 336.402 274.371C337.543 275.292 338.678 276.22 339.805 277.158C344.488 280.929 349.569 283.461 355 286C355.823 286.386 356.646 286.771 357.493 287.169C359.155 287.943 360.817 288.715 362.48 289.485C387.25 301.019 409.397 316.621 431.732 332.249C439.864 337.932 448.09 343.464 456.372 348.925C457.918 349.946 459.459 350.973 461 352C464.689 352.453 468.411 352.332 472.125 352.313C473.794 352.304 473.794 352.304 475.498 352.295C511.894 351.778 550.422 343.439 577 317C577.696 316.339 578.392 315.677 579.109 314.996C592.26 301.565 597.453 282.549 597.434 264.207C596.632 258.281 593.4 255.056 588.957 251.418C578.694 243.982 566.498 242.166 554.125 243.625C532.341 247.2 513.808 261.022 500.938 278.563C492.422 290.5 486.971 303.142 486.344 317.856C486 321 486 321 484 324C480.026 325.623 475.833 326.589 471.688 327.688C470.565 328.008 469.443 328.328 468.287 328.658C460.101 330.863 450.192 333.438 442.165 329.669C438.612 327.432 436.342 325.514 434 322C433.338 318.952 433.156 315.836 432.891 312.731C432.807 311.767 432.722 310.804 432.636 309.811C431.684 297.667 431.698 285.509 431.739 273.334C431.753 269.335 431.739 265.337 431.727 261.338C431.718 248.63 431.955 235.973 432.828 223.293C432.897 222.227 432.966 221.16 433.038 220.061C433.529 213.763 434.676 207.946 436.304 201.847C437.327 197.663 437.746 193.504 438.098 189.219C438.177 188.357 438.257 187.496 438.339 186.609C438.589 183.906 438.827 181.204 439.062 178.5C439.302 175.768 439.544 173.037 439.796 170.306C439.952 168.619 440.1 166.932 440.24 165.244C440.909 157.998 440.909 157.998 443 155C452.936 148.229 466.077 144.546 478.047 144.566C480.607 145.135 481.439 145.9 483 148C483.914 150.418 483.914 150.418 484.625 153.188C484.865 154.089 485.105 154.99 485.352 155.918C488.823 172.419 486.796 189.269 485.067 205.859C484.142 214.948 483.822 223.861 484 233C485.056 232.371 486.111 231.742 487.199 231.094C510.889 217.28 535.367 209.774 562.875 209.75C563.569 209.749 564.263 209.749 564.978 209.748C595.736 209.796 620.296 219.66 642.766 240.574C651.527 250.086 652.451 262.746 652.25 275.102C650.842 297.058 641.481 315.03 627 331C626.029 332.096 626.029 332.096 625.039 333.215C615.3 343.613 602.548 351.479 590 358C589.321 358.358 588.641 358.716 587.941 359.085C560.12 373.564 529.86 379.231 499 383C498.861 383.591 498.722 384.182 498.579 384.791C496.865 390.995 494.833 393.842 489.312 397.063C488.725 397.451 488.138 397.84 487.533 398.24C483.123 400.961 479.172 401.858 474 401C470.315 400.015 466.8 398.702 463.25 397.313C461.691 396.712 461.691 396.712 460.101 396.1C428.094 383.528 398.093 366.804 368.725 349.042C366.968 347.981 365.21 346.923 363.451 345.865C348.779 337.045 334.218 328.067 319.817 318.81C316.775 316.855 313.728 314.908 310.68 312.961C301.581 307.148 292.488 301.326 283.438 295.438C271.098 287.417 258.636 279.545 246 272C245.61 299.851 246.062 327.617 247.312 355.438C247.345 356.17 247.378 356.903 247.412 357.658C248.414 379.863 249.603 402.057 251.085 424.236C253.112 454.969 253.112 454.969 250 465C243.461 468.27 234.491 465.092 228 463C221.92 460.606 218.107 458.903 215 453C214.178 450.529 213.441 448.103 212.766 445.594C212.567 444.88 212.368 444.166 212.163 443.431C211.739 441.909 211.317 440.385 210.899 438.861C209.81 434.898 208.696 430.943 207.578 426.988C207.248 425.82 207.248 425.82 206.912 424.629C203.988 414.349 200.682 404.163 196.934 394.152C195.545 389.462 194.82 384.703 194.062 379.875C193.89 378.779 193.717 377.683 193.54 376.554C188.539 343.852 186.888 310.842 185.875 277.813C185.789 275.119 185.701 272.426 185.613 269.732C185 250.747 185 250.747 185 248C175.278 253.227 165.847 258.478 156.992 265.09C154.168 266.893 151.511 267.892 148.371 268.996C143.608 271.013 139.297 273.904 134.917 276.634C131.82 278.563 128.709 280.466 125.598 282.371C124.646 282.955 124.646 282.955 123.675 283.55C114.24 289.32 104.629 294.786 95.0249 300.269C92.1005 301.943 89.1839 303.629 86.2695 305.32C30.2242 337.777 30.2242 337.777 12 334C7.57484 331.413 3.8275 328.42 0 325C0.920326 319.752 2.46915 316.016 6.77783 312.584C11.9447 309.08 17.1989 306.469 22.9124 303.972C42.5877 295.251 59.7939 283.078 77.4375 270.877C86.9596 264.304 96.6172 257.944 106.295 251.604C132.353 236.315 132.353 236.315 156 218C137.822 205.305 117.49 195.485 98 185C95.8008 183.815 93.6015 182.63 91.4023 181.445C87.3158 179.244 83.2244 177.052 79.1289 174.867C62.0031 165.689 45.572 155.636 30 144C28.9443 143.24 27.8885 142.479 26.8008 141.695C20.7732 137.141 17.0946 133.634 16 126C15.8144 124.804 15.6287 123.608 15.4375 122.375C16.5588 115.647 21.2924 112.383 26.616 108.505C42.2767 97.496 42.2767 97.496 51 99.0001C60.6676 103.507 69.4197 109.787 78.2402 115.723C87.8193 122.086 97.3511 127.173 108.213 130.954C113.404 132.902 118.309 135.434 123.25 137.938C124.382 138.508 125.514 139.079 126.68 139.667C147.314 150.165 167.134 162.134 187 174C187.035 173.025 187.071 172.051 187.107 171.046C189.189 119.437 200.663 65.2338 219 17.0001C219.278 16.195 219.556 15.3899 219.843 14.5604C221.541 10.3234 223.182 8.54884 227.406 6.72271C229.094 6.13946 230.793 5.58657 232.5 5.06256C233.782 4.62847 233.782 4.62847 235.09 4.18561C243.263 1.45048 250.108 -0.0778671 258.688 1.81256Z" fill="#FCB230"/>
<path d="M1140 61.4227C1171.08 61.3551 1202.16 61.2874 1234.18 61.2177C1243.94 61.1879 1253.71 61.158 1263.77 61.1272C1275.82 61.1124 1275.82 61.1124 1281.48 61.1097C1285.38 61.1067 1289.29 61.0945 1293.19 61.0765C1381.94 60.6845 1381.94 60.6845 1413.5 90.5249C1429.16 107.059 1434.1 128.633 1433.72 150.813C1433.09 167.709 1427.43 182.657 1417.06 195.887C1416.2 197.013 1416.2 197.013 1415.32 198.163C1403.39 212.854 1385.93 221.255 1367.78 225.403C1368.72 225.608 1368.72 225.608 1369.68 225.818C1395.49 231.516 1419.46 240.454 1434.51 263.528C1438.83 270.474 1441.96 277.727 1444.43 285.529C1444.69 286.315 1444.94 287.102 1445.21 287.912C1451.27 310.305 1447.06 335.437 1436.43 355.661C1422.26 379.422 1397.79 393.419 1371.71 400.703C1351.23 405.798 1330.46 407.048 1309.45 406.999C1307.56 406.998 1305.67 406.998 1303.78 406.999C1298.77 406.999 1293.76 406.993 1288.74 406.985C1284.02 406.979 1279.3 406.979 1274.58 406.978C1260.82 406.972 1247.05 406.957 1233.29 406.943C1187.11 406.909 1187.11 406.909 1140 406.874C1140 292.875 1140 178.876 1140 61.4227ZM1195.85 101.871C1195.85 136.504 1195.85 171.136 1195.85 206.819C1215.11 206.882 1215.11 206.882 1234.38 206.925C1242.25 206.938 1250.13 206.954 1258.01 206.983C1264.37 207.008 1270.73 207.02 1277.09 207.026C1279.5 207.03 1281.91 207.038 1284.31 207.05C1296.48 207.108 1308.55 206.925 1320.67 205.866C1321.64 205.783 1322.61 205.7 1323.6 205.615C1340.55 203.957 1357.09 198.01 1368.94 185.42C1378.76 173.172 1380.06 158.502 1378.73 143.413C1376.43 130.929 1371.08 120.892 1360.7 113.418C1345 103.76 1326.3 101.685 1308.23 101.747C1307.02 101.747 1305.8 101.747 1304.54 101.747C1300.54 101.747 1296.53 101.756 1292.52 101.764C1289.74 101.766 1286.95 101.768 1284.17 101.769C1277.6 101.773 1271.03 101.781 1264.46 101.792C1256.24 101.806 1248.02 101.812 1239.8 101.818C1225.15 101.828 1210.5 101.85 1195.85 101.871ZM1195.85 246.174C1195.85 285.857 1195.85 325.54 1195.85 366.426C1217.28 366.522 1217.28 366.522 1238.71 366.586C1247.47 366.606 1256.23 366.629 1264.99 366.673C1272.06 366.709 1279.13 366.729 1286.21 366.737C1288.89 366.743 1291.57 366.755 1294.25 366.773C1322.6 366.954 1353.5 366.473 1375.44 345.869C1385.97 334.348 1388.99 319.666 1388.82 304.459C1387.75 287.982 1382.15 274.876 1369.97 263.665C1366.49 261.062 1362.91 259.029 1359.02 257.106C1358.08 256.625 1357.14 256.145 1356.17 255.65C1338.91 247.625 1318.71 245.979 1299.9 246.05C1298.75 246.05 1297.6 246.049 1296.41 246.049C1292.73 246.05 1289.04 246.058 1285.36 246.067C1283.07 246.069 1280.77 246.07 1278.48 246.07C1270.03 246.076 1261.58 246.091 1253.14 246.105C1234.23 246.128 1215.33 246.151 1195.85 246.174Z" fill="white"/>
<path d="M1571.77 60C1668.28 60 1764.79 60 1864.23 60C1864.23 96.8556 1864.23 133.711 1864.23 171.684C1874.72 171.684 1885.2 171.684 1896 171.684C1896 184.33 1896 196.977 1896 210.006C1844.31 210.006 1792.62 210.006 1739.36 210.006C1739.36 227.711 1739.36 245.417 1739.36 263.658C1781.29 263.658 1823.22 263.658 1866.42 263.658C1866.42 310.631 1866.42 357.604 1866.42 406C1851.97 406 1837.51 406 1822.61 406C1822.61 371.674 1822.61 337.347 1822.61 301.981C1738.39 301.981 1654.16 301.981 1567.38 301.981C1567.38 289.334 1567.38 276.688 1567.38 263.658C1609.68 263.658 1651.97 263.658 1695.54 263.658C1695.54 245.953 1695.54 228.248 1695.54 210.006C1644.21 210.006 1592.89 210.006 1540 210.006C1540 197.36 1540 184.713 1540 171.684C1632.54 171.684 1725.08 171.684 1820.42 171.684C1820.42 147.474 1820.42 123.265 1820.42 98.3228C1738.36 98.3228 1656.31 98.3228 1571.77 98.3228C1571.77 85.6763 1571.77 73.0297 1571.77 60Z" fill="white"/>
<path d="M767 60.1248C785.42 60.1248 803.84 60.1248 822.818 60.1248C824.702 62.0095 824.069 64.5148 824.085 67.0872C824.096 68.36 824.107 69.6328 824.118 70.9442C824.127 73.0575 824.127 73.0575 824.137 75.2135C824.147 76.7022 824.158 78.1909 824.17 79.6796C824.199 83.7331 824.222 87.7866 824.244 91.8401C824.268 96.0718 824.298 100.303 824.327 104.535C824.382 112.554 824.431 120.573 824.478 128.591C824.532 137.718 824.592 146.845 824.653 155.971C824.778 174.751 824.895 193.53 825.007 212.309C825.759 211.629 826.512 210.949 827.288 210.249C828.768 208.913 828.768 208.913 830.279 207.551C831.257 206.668 832.236 205.784 833.244 204.874C836.025 202.39 838.857 199.999 841.765 197.666C846.261 194.025 850.699 190.329 855.104 186.58C860.412 182.068 865.777 177.636 871.179 173.237C874.605 170.419 877.991 167.557 881.371 164.683C886.679 160.171 892.044 155.738 897.446 151.34C900.872 148.522 904.258 145.659 907.638 142.786C912.946 138.274 918.311 133.841 923.713 129.443C927.14 126.625 930.526 123.762 933.906 120.889C939.213 116.377 944.578 111.944 949.98 107.546C953.407 104.728 956.793 101.865 960.173 98.9921C965.48 94.4802 970.845 90.0472 976.248 85.6486C980.279 82.3324 984.255 78.9526 988.232 75.5709C993.221 71.336 998.273 67.1851 1003.35 63.0586C1005.45 61.3976 1005.45 61.3976 1006.69 60.1248C1009.17 60.0214 1011.66 59.9962 1014.15 60.0005C1015.31 60.0002 1015.31 60.0002 1016.51 60C1019.1 60.0008 1021.68 60.0093 1024.27 60.0179C1026.06 60.0199 1027.85 60.0215 1029.64 60.0226C1034.36 60.0267 1039.08 60.0375 1043.8 60.0496C1048.61 60.0608 1053.42 60.0658 1058.24 60.0713C1067.69 60.0831 1077.13 60.1018 1086.58 60.1248C1086.58 60.8474 1086.58 61.57 1086.58 62.3145C1084.61 63.9778 1082.64 65.5121 1080.56 67.036C1074.83 71.343 1069.22 75.7662 1063.67 80.3111C1055.09 87.3252 1046.39 94.1789 1037.65 101C1030.25 106.78 1022.91 112.616 1015.65 118.563C1009.67 123.453 1003.61 128.204 997.453 132.864C990.229 138.336 983.2 144.007 976.229 149.797C968.979 155.814 961.586 161.632 954.153 167.42C946.064 173.732 938.025 180.094 930.075 186.58C917.876 196.529 905.504 206.214 892.863 215.594C894.064 219.197 894.886 219.938 897.72 222.3C901.261 225.304 904.745 228.352 908.186 231.469C911.448 234.414 914.722 237.341 918.036 240.228C924.154 245.562 930.157 251.022 936.18 256.463C941.021 260.83 945.886 265.164 950.801 269.447C954.343 272.561 957.835 275.73 961.336 278.89C963.669 280.985 966.017 283.058 968.381 285.117C974.499 290.451 980.503 295.911 986.525 301.352C991.366 305.719 996.231 310.053 1001.15 314.336C1004.69 317.451 1008.18 320.622 1011.69 323.784C1013.99 325.855 1016.32 327.903 1018.66 329.938C1023.25 333.936 1027.73 338.045 1032.23 342.148C1035.35 344.973 1038.51 347.745 1041.68 350.505C1044.27 352.772 1046.82 355.073 1049.37 357.378C1052.63 360.323 1055.91 363.249 1059.22 366.136C1065.34 371.47 1071.34 376.931 1077.37 382.371C1083.76 388.142 1090.2 393.863 1096.73 399.478C1097.54 400.173 1098.34 400.867 1099.17 401.582C1099.9 402.212 1100.64 402.841 1101.39 403.49C1101.92 403.989 1102.45 404.489 1103 405.004C1103 405.365 1103 405.726 1103 406.099C1092.89 406.482 1082.78 406.772 1072.66 406.95C1067.95 407.035 1063.26 407.15 1058.56 407.338C1024 408.684 1024 408.684 1014.32 400.401C1011.64 397.626 1009.26 394.76 1007.03 391.614C1004.99 388.865 1002.53 386.741 999.915 384.544C995.179 380.313 990.508 376.015 985.847 371.702C981.835 367.99 977.815 364.287 973.785 360.594C972.979 359.855 972.979 359.855 972.157 359.102C971.075 358.111 969.993 357.119 968.911 356.128C966.179 353.626 963.45 351.122 960.72 348.619C959.625 347.615 958.531 346.612 957.436 345.608C858.935 255.283 858.935 255.283 857.293 253.777C856.2 252.775 855.107 251.773 854.015 250.771C851.25 248.236 848.486 245.7 845.724 243.162C845.164 242.648 844.604 242.133 844.027 241.603C842.495 240.196 840.963 238.788 839.431 237.38C834.644 233.015 829.821 228.688 825.007 224.353C824.645 284.329 824.284 344.305 823.912 406.099C805.131 406.099 786.35 406.099 767 406.099C767 291.927 767 177.756 767 60.1248Z" fill="white"/>
<path d="M2683 72C2770.78 72 2858.56 72 2949 72C2949 84.6171 2949 97.2342 2949 110.234C2875.67 110.234 2802.34 110.234 2726.79 110.234C2726.79 151.329 2726.79 192.425 2726.79 234.766C2800.12 234.766 2873.45 234.766 2949 234.766C2949 247.383 2949 260.001 2949 273C2861.22 273 2773.44 273 2683 273C2683 206.67 2683 140.34 2683 72Z" fill="white"/>
<path d="M1938 66C2005.98 66 2073.96 66 2144 66C2144 123.75 2144 181.5 2144 241C2076.02 241 2008.04 241 1938 241C1938 183.25 1938 125.5 1938 66ZM1981.83 105.375C1981.83 137.138 1981.83 168.9 1981.83 201.625C2020.88 201.625 2059.93 201.625 2100.17 201.625C2100.17 169.862 2100.17 138.1 2100.17 105.375C2061.12 105.375 2022.07 105.375 1981.83 105.375Z" fill="white"/>
<path d="M2291 71C2359.64 71 2428.28 71 2499 71C2499 144.26 2499 217.52 2499 293C2484.19 293 2469.38 293 2454.12 293C2454.12 259.077 2454.12 225.153 2454.12 190.202C2400.29 190.202 2346.46 190.202 2291 190.202C2291 177.571 2291 164.94 2291 151.926C2344.83 151.926 2398.66 151.926 2454.12 151.926C2454.12 138.212 2454.12 124.499 2454.12 110.369C2400.29 110.369 2346.46 110.369 2291 110.369C2291 97.3775 2291 84.3856 2291 71Z" fill="white"/>
<path d="M2541 59C2555.87 59 2570.73 59 2586.05 59C2586.05 85.731 2586.05 112.462 2586.05 140.003C2600.55 140.003 2615.06 140.003 2630 140.003C2630 152.646 2630 165.289 2630 178.315C2615.5 178.315 2600.99 178.315 2586.05 178.315C2586.05 253.451 2586.05 328.587 2586.05 406C2571.18 406 2556.32 406 2541 406C2541 291.49 2541 176.98 2541 59Z" fill="white"/>
<path d="M1977 277C1991.77 277 2006.55 277 2021.77 277C2021.77 306.604 2021.77 336.208 2021.77 366.709C2097.09 366.709 2172.4 366.709 2250 366.709C2250 379.345 2250 391.981 2250 405C2159.91 405 2069.82 405 1977 405C1977 362.76 1977 320.52 1977 277Z" fill="white"/>
<path d="M2659.36 343.013C2660.51 343.01 2661.65 343.008 2662.83 343.005C2664.75 343.008 2664.75 343.008 2666.7 343.012C2668.04 343.01 2669.39 343.009 2670.77 343.007C2674.51 343.003 2678.26 343.005 2682 343.008C2686.03 343.01 2690.07 343.007 2694.1 343.004C2702 342.999 2709.91 343 2717.81 343.003C2724.23 343.005 2730.65 343.006 2737.07 343.005C2738.44 343.004 2738.44 343.004 2739.84 343.004C2741.69 343.004 2743.54 343.003 2745.4 343.003C2762.79 343 2780.18 343.003 2797.58 343.009C2812.52 343.014 2827.46 343.013 2842.4 343.008C2859.73 343.002 2877.06 343 2894.39 343.003C2896.23 343.004 2898.08 343.004 2899.93 343.005C2900.83 343.005 2901.74 343.005 2902.68 343.005C2909.1 343.006 2915.51 343.004 2921.93 343.002C2929.75 342.999 2937.56 342.999 2945.38 343.005C2949.37 343.008 2953.36 343.009 2957.35 343.006C2961.67 343.002 2965.98 343.007 2970.3 343.012C2971.58 343.01 2972.85 343.007 2974.17 343.005C2975.31 343.008 2976.46 343.01 2977.64 343.013C2979.14 343.014 2979.14 343.014 2980.66 343.014C2982.91 343.153 2982.91 343.153 2984 344.263C2984 356.716 2984 369.169 2984 382C2874.77 382 2765.54 382 2653 382C2653 343.015 2653 343.015 2659.36 343.013Z" fill="white"/>
<path d="M2203 58C2217.52 58 2232.04 58 2247 58C2247 133.57 2247 209.14 2247 287C2232.48 287 2217.96 287 2203 287C2203 211.43 2203 135.86 2203 58Z" fill="white"/>
</svg>
