<?xml version="1.0" encoding="UTF-8"?>
<svg version="1.1" xmlns="http://www.w3.org/2000/svg" width="1200" height="800">
<path d="M0 0 C396 0 792 0 1200 0 C1200 264 1200 528 1200 800 C804 800 408 800 0 800 C0 536 0 272 0 0 Z " fill="#FEFEFE" transform="translate(0,0)"/>
<path d="M0 0 C0.99128906 0.35191406 1.98257813 0.70382812 3.00390625 1.06640625 C9.42378811 3.55072835 14.98363838 6.70733096 20.625 10.64453125 C23.12324138 12.33045158 23.12324138 12.33045158 27 12 C29.49923984 10.64309052 29.49923984 10.64309052 32.0625 8.8125 C47.32345045 -1.16658913 65.94959211 -6.02099756 84.16357422 -2.59277344 C88.93799494 -1.44797124 93.44353695 0.18128439 98 2 C99.06992187 2.4228125 100.13984375 2.845625 101.2421875 3.28125 C109.60957731 7.01940857 115.63181214 12.57619478 122 19 C122.66902344 19.63550781 123.33804688 20.27101563 124.02734375 20.92578125 C135.91115018 33.07906175 140.53656778 50.39379864 140.49267578 66.87524414 C139.90176979 87.544108 130.46813637 102.76087022 116.0859375 116.87890625 C102.26091485 129.42626093 84.40277504 133.79752335 66.11376953 133.12304688 C52.70324964 132.34239291 39.85908401 127.49198106 29.34375 119.1171875 C26.26324327 116.63286917 26.26324327 116.63286917 23.31640625 117.51171875 C21.14941049 118.90400439 19.01771597 120.29342129 16.9375 121.8125 C11.64539616 125.43201584 5.98887659 127.76932532 0 130 C-0.94488281 130.35578125 -1.88976562 130.7115625 -2.86328125 131.078125 C-19.29138817 135.90631084 -37.07451284 133.55603621 -52.37890625 126.42578125 C-59.44609699 122.55371889 -65.30888219 117.67185853 -71 112 C-71.71027344 111.31292969 -72.42054688 110.62585938 -73.15234375 109.91796875 C-85.67857355 96.95897093 -90.41398966 79.67705293 -90.140625 62.0859375 C-89.68214498 46.07611094 -83.95312922 31.73402773 -73 20 C-72.32324219 19.23300781 -71.64648438 18.46601563 -70.94921875 17.67578125 C-53.36298662 -1.26076486 -24.47827742 -8.74475047 0 0 Z " fill="#EC1D2F" transform="translate(575,335)"/>
<path d="M0 0 C1.06992187 0.4228125 2.13984375 0.845625 3.2421875 1.28125 C11.60957731 5.01940857 17.63181214 10.57619478 24 17 C24.66902344 17.63550781 25.33804688 18.27101563 26.02734375 18.92578125 C37.91115018 31.07906175 42.53656778 48.39379864 42.49267578 64.87524414 C41.90176979 85.544108 32.46813637 100.76087022 18.0859375 114.87890625 C4.26091485 127.42626093 -13.59722496 131.79752335 -31.88623047 131.12304688 C-47.29443891 130.22610335 -61.23224411 123.80646324 -73 114 C-71.02 111.69 -69.04 109.38 -67 107 C-67.96421875 107.00902344 -68.9284375 107.01804687 -69.921875 107.02734375 C-71.18515625 106.99769531 -72.4484375 106.96804688 -73.75 106.9375 C-75.62945313 106.92009766 -75.62945313 106.92009766 -77.546875 106.90234375 C-78.68640625 106.60457031 -79.8259375 106.30679688 -81 106 C-82.98 102.535 -82.98 102.535 -85 99 C-76.75 99 -68.5 99 -60 99 C-59.34 97.02 -58.68 95.04 -58 93 C-59.38505737 92.99383667 -59.38505737 92.99383667 -60.7980957 92.98754883 C-64.22613076 92.96057002 -67.65236962 92.91149458 -71.07983398 92.84741211 C-72.56279477 92.82422311 -74.04592045 92.80983419 -75.52905273 92.80444336 C-77.66234178 92.79515887 -79.79303474 92.75419179 -81.92578125 92.70703125 C-83.20880127 92.6913208 -84.49182129 92.67561035 -85.8137207 92.65942383 C-89 92 -89 92 -90.94213867 89.58081055 C-92 87 -92 87 -92 85 C-79.46 85 -66.92 85 -54 85 C-53.67 83.02 -53.34 81.04 -53 79 C-49 81 -49 81 -47.1875 82.0625 C-44.55337368 83.19141128 -42.60335563 83.20008831 -39.75 83.125 C-38.85796875 83.10695313 -37.9659375 83.08890625 -37.046875 83.0703125 C-36.37140625 83.04710937 -35.6959375 83.02390625 -35 83 C-35 82.34 -35 81.68 -35 81 C-35.66386719 81.04640625 -36.32773437 81.0928125 -37.01171875 81.140625 C-44.25160787 81.43656207 -44.25160787 81.43656207 -48 79.25 C-51.93193774 74.82657004 -52.29477109 71.54645591 -52.3125 65.625 C-52.32925781 64.33851563 -52.34601562 63.05203125 -52.36328125 61.7265625 C-51.98133229 57.80850546 -50.97712676 55.36998386 -49 52 C-51.38255267 53.94936128 -52.03741412 55.11691913 -53 58.125 C-53.33 59.07375 -53.66 60.0225 -54 61 C-54.99 61.33 -55.98 61.66 -57 62 C-58.77508247 66.18323632 -59.48493881 70.39457167 -60.125 74.875 C-60.29257812 76.02742188 -60.46015625 77.17984375 -60.6328125 78.3671875 C-60.75398437 79.23601562 -60.87515625 80.10484375 -61 81 C-63.64 81 -66.28 81 -69 81 C-67.88156738 71.62420318 -66.65562772 62.29969612 -65 53 C-62.69 53 -60.38 53 -58 53 C-57.67 53.66 -57.34 54.32 -57 55 C-56.566875 54.505 -56.13375 54.01 -55.6875 53.5 C-54 52 -54 52 -51 52 C-51 51.01 -51 50.02 -51 49 C-65.19 49 -79.38 49 -94 49 C-94 49.99 -94 50.98 -94 52 C-93.01 52 -92.02 52 -91 52 C-91.33 54.64 -91.66 57.28 -92 60 C-93.32 60 -94.64 60 -96 60 C-96.66 64.62 -97.32 69.24 -98 74 C-96.68 74 -95.36 74 -94 74 C-93.95745644 75.99954746 -93.95919217 78.00041636 -94 80 C-95.87264676 81.87264676 -98.49759947 81.23607378 -100.9921875 81.328125 C-103 81 -103 81 -104.765625 79.8359375 C-109.44961709 72.86924041 -103.54166821 56.09618213 -102 48 C-99.36 48 -96.72 48 -94 48 C-93.505 45.03 -93.505 45.03 -93 42 C-80.13 42 -67.26 42 -54 42 C-54.99 39.69 -55.98 37.38 -57 35 C-67.56 34.67 -78.12 34.34 -89 34 C-88.01 31.69 -87.02 29.38 -86 27 C-78.08 26.67 -70.16 26.34 -62 26 C-62.99 24.68 -63.98 23.36 -65 22 C-65 21.34 -65 20.68 -65 20 C-69.95 20 -74.9 20 -80 20 C-69.26807498 6.44388419 -54.95706818 -1.73513952 -37.9453125 -4.55859375 C-24.24494773 -6.09140684 -12.83824771 -5.12439611 0 0 Z " fill="#FBB033" transform="translate(673,337)"/>
<path d="M0 0 C0.66 0 1.32 0 2 0 C-1.16887304 22.80127986 -1.16887304 22.80127986 -3 32 C-0.69 32 1.62 32 4 32 C4.04898437 31.18917969 4.09796875 30.37835938 4.1484375 29.54296875 C4.64162798 22.23864773 5.52007561 15.16973078 7 8 C7.33 8 7.66 8 8 8 C8 15.92 8 23.84 8 32 C9.98 32 11.96 32 14 32 C14.23783203 31.05253906 14.23783203 31.05253906 14.48046875 30.0859375 C16.53618645 22.20379338 19.18002137 14.63512001 22 7 C22.33 7 22.66 7 23 7 C22.42029353 15.49569832 20.76198299 23.68875949 19 32 C21.64 32 24.28 32 27 32 C27.04898438 31.27296875 27.09796875 30.5459375 27.1484375 29.796875 C27.69540786 22.4410667 28.67510264 15.25477776 30 8 C31.32 7.67 32.64 7.34 34 7 C34 7.99 34 8.98 34 10 C37.63 10 41.26 10 45 10 C45.495 11.98 45.495 11.98 46 14 C45.41992188 14.02578125 44.83984375 14.0515625 44.2421875 14.078125 C38.90191349 14.46586767 34.89843879 15.00160124 31 19 C30.38055879 22.08604494 30.40846973 24.91152944 31 28 C31.66 28.99 32.32 29.98 33 31 C37.17660573 31.26518132 40.04340734 31.31886422 44 30 C44 30.66 44 31.32 44 32 C46.31 32 48.62 32 51 32 C50.95875 30.96875 50.9175 29.9375 50.875 28.875 C50.875 22.56071556 51.64540406 16.16257534 53 10 C53.66 9.67 54.32 9.34 55 9 C55.06316406 9.60328125 55.12632812 10.2065625 55.19140625 10.828125 C55.84292753 15.69719163 55.84292753 15.69719163 58.69140625 19.48828125 C60.82028245 20.71495735 60.82028245 20.71495735 64 22 C63.67 23.32 63.34 24.64 63 26 C60.03 26 57.06 26 54 26 C53.34 27.98 52.68 29.96 52 32 C54.0839403 31.88556397 56.16716493 31.75804453 58.25 31.625 C59.99023438 31.52058594 59.99023438 31.52058594 61.765625 31.4140625 C64.74204718 31.03302295 66.57817809 30.73726892 69 29 C69.92943227 25.93834075 70.49275099 23.14966247 71 20 C71.2607637 18.46728513 71.52257352 16.93474804 71.78515625 15.40234375 C72.54405417 10.93813447 73.27668211 6.47010455 74 2 C74.66 2 75.32 2 76 2 C75.90912109 2.59425781 75.81824219 3.18851562 75.72460938 3.80078125 C75.31031941 6.53297048 74.90510779 9.26643484 74.5 12 C74.35691406 12.93457031 74.21382812 13.86914062 74.06640625 14.83203125 C73.2649739 20.28940391 72.84390673 25.48470461 73 31 C76.3 31 79.6 31 83 31 C83.33 29.02 83.66 27.04 84 25 C82.68 25 81.36 25 80 25 C80.14076315 23.0412957 80.2877676 21.08303907 80.4375 19.125 C80.55931641 17.48917969 80.55931641 17.48917969 80.68359375 15.8203125 C81 13 81 13 82 11 C83.32 11 84.64 11 86 11 C86.33 8.36 86.66 5.72 87 3 C86.01 3 85.02 3 84 3 C84 2.01 84 1.02 84 0 C98.19 0 112.38 0 127 0 C127 0.99 127 1.98 127 3 C124.73783745 4.54779543 122.44775434 5.77612283 120 7 C120 6.01 120 5.02 120 4 C117.69 4 115.38 4 113 4 C112.96261719 4.680625 112.92523437 5.36125 112.88671875 6.0625 C112.28940318 14.86997666 110.74263153 23.36356199 109 32 C111.64 32 114.28 32 117 32 C117.03738281 31.14277344 117.07476563 30.28554688 117.11328125 29.40234375 C117.48438703 22.94801388 117.93509448 17.73004075 121 12 C121.99 12 122.98 12 124 12 C124.061875 11.0925 124.12375 10.185 124.1875 9.25 C125.18446044 5.26215824 126.64888166 4.23407889 130 2 C128.125 6.75 128.125 6.75 127 9 C126.82396853 11.41249692 126.73255032 13.83150895 126.6875 16.25 C126.65011719 17.55453125 126.61273437 18.8590625 126.57421875 20.203125 C127.06159017 24.54922608 128.2578805 26.64230265 131 30 C133.43387753 31.21693876 135.41838846 31.31959896 138.125 31.5625 C139.03507813 31.64628906 139.94515625 31.73007812 140.8828125 31.81640625 C141.58148437 31.87699219 142.28015625 31.93757813 143 32 C143 32.66 143 33.32 143 34 C138.6747634 35.44174553 134.97494523 35.98747261 130.765625 33.8828125 C128.79478262 32.64579441 126.88156131 31.36840823 125 30 C124.67 31.98 124.34 33.96 124 36 C111.46 36 98.92 36 86 36 C86.99 37.98 87.98 39.96 89 42 C104.84 42.495 104.84 42.495 121 43 C120.01 45.31 119.02 47.62 118 50 C110.08 50.33 102.16 50.66 94 51 C94.99 52.32 95.98 53.64 97 55 C97 55.66 97 56.32 97 57 C101.95 57 106.9 57 112 57 C101.66769753 70.05132943 86.87117867 79.10163578 70.265625 81.55078125 C51.66459556 83.68504317 34.50926587 81.14518673 19 70 C15.46419723 67.18168129 12.20154927 64.19071492 9 61 C8.28972656 60.31292969 7.57945312 59.62585938 6.84765625 58.91796875 C0.83693095 52.69957924 -5.75295452 43.61516409 -6.14428711 34.72045898 C-6.00252538 31.06511721 -5.56905566 27.64479502 -4.94140625 24.04296875 C-4.72033203 22.76615234 -4.49925781 21.48933594 -4.27148438 20.17382812 C-4.15506592 19.51970947 -4.03864746 18.86559082 -3.91870117 18.19165039 C-3.56053645 16.17645218 -3.21222607 14.15972715 -2.86523438 12.14257812 C-1.13831967 2.27663934 -1.13831967 2.27663934 0 0 Z " fill="#EA1D30" transform="translate(495,386)"/>
<path d="M0 0 C9.25 0 9.25 0 13 1 C10 8.57142857 10 8.57142857 7 11 C7.99 11.495 7.99 11.495 9 12 C8.95359375 12.80824219 8.9071875 13.61648438 8.859375 14.44921875 C8.59564936 21.04250491 8.59564936 21.04250491 10.5 27.25 C14.1996388 29.83974716 16.52758408 29.42594437 21 29 C21.99 28.67 22.98 28.34 24 28 C24 28.66 24 29.32 24 30 C26.31 30 28.62 30 31 30 C31 29.34 31 28.68 31 28 C31.66 28 32.32 28 33 28 C33.495 26.515 33.495 26.515 34 25 C34.99 25.99 34.99 25.99 36 27 C38.06874034 27.6425235 38.06874034 27.6425235 40 28 C40 27.34 40 26.68 40 26 C40.66 26 41.32 26 42 26 C41.7204145 39.97927519 32.51455436 50.75405862 23 60 C22.36964844 60.61617188 21.73929688 61.23234375 21.08984375 61.8671875 C7.30658084 74.44482221 -10.62344823 78.79655627 -28.88623047 78.12304688 C-44.29443891 77.22610335 -58.23224411 70.80646324 -70 61 C-68.02 58.69 -66.04 56.38 -64 54 C-64.96421875 54.00902344 -65.9284375 54.01804687 -66.921875 54.02734375 C-68.18515625 53.99769531 -69.4484375 53.96804688 -70.75 53.9375 C-72.62945313 53.92009766 -72.62945313 53.92009766 -74.546875 53.90234375 C-75.68640625 53.60457031 -76.8259375 53.30679688 -78 53 C-79.32 50.69 -80.64 48.38 -82 46 C-73.75 46 -65.5 46 -57 46 C-56.34 44.02 -55.68 42.04 -55 40 C-55.92337158 39.99589111 -56.84674316 39.99178223 -57.7980957 39.98754883 C-61.22613076 39.96057002 -64.65236962 39.91149458 -68.07983398 39.84741211 C-69.56279477 39.82422311 -71.04592045 39.80983419 -72.52905273 39.80444336 C-74.66234178 39.79515887 -76.79303474 39.75419179 -78.92578125 39.70703125 C-80.20880127 39.6913208 -81.49182129 39.67561035 -82.8137207 39.65942383 C-86 39 -86 39 -87.94213867 36.58081055 C-89 34 -89 34 -89 32 C-76.46 32 -63.92 32 -51 32 C-50.67 30.02 -50.34 28.04 -50 26 C-46 28 -46 28 -44.1875 29.0625 C-41.55337368 30.19141128 -39.60335563 30.20008831 -36.75 30.125 C-35.41195312 30.09792969 -35.41195312 30.09792969 -34.046875 30.0703125 C-33.37140625 30.04710937 -32.6959375 30.02390625 -32 30 C-32 29.34 -32 28.68 -32 28 C-31.34 28 -30.68 28 -30 28 C-29.67 27.34 -29.34 26.68 -29 26 C-28.34 26.99 -27.68 27.98 -27 29 C-24.56930159 29.32772468 -24.56930159 29.32772468 -21.8125 29.125 C-17.37066009 28.99642042 -13.36767299 29.2235248 -9 30 C-9 29.34 -9 28.68 -9 28 C-8.34 28 -7.68 28 -7 28 C-6.92652344 26.77023437 -6.92652344 26.77023437 -6.8515625 25.515625 C-6.77679687 24.43796875 -6.70203125 23.3603125 -6.625 22.25 C-6.55539062 21.18265625 -6.48578125 20.1153125 -6.4140625 19.015625 C-6.0271777 16.19793568 -5.44313834 14.4169634 -4 12 C-4.51241107 18.02900687 -5.069785 24.02004643 -6 30 C-3.69 30 -1.38 30 1 30 C1 29.34 1 28.68 1 28 C-0.65 28 -2.3 28 -4 28 C-3.49628894 21.6240784 -2.82551876 15.278985 -2 8.9375 C-1.835 7.66777344 -1.67 6.39804687 -1.5 5.08984375 C-1 2 -1 2 0 0 Z " fill="#FBB032" transform="translate(670,390)"/>
<path d="M0 0 C3.63 0 7.26 0 11 0 C11.33 6.27 11.66 12.54 12 19 C13.93285685 13.12229456 13.93285685 13.12229456 15.85913086 7.24243164 C16.22083374 6.14983032 16.22083374 6.14983032 16.58984375 5.03515625 C16.83597412 4.2862915 17.08210449 3.53742676 17.33569336 2.76586914 C18 1 18 1 19 0 C20.85287502 -0.07226502 22.70833878 -0.0838122 24.5625 -0.0625 C25.57441406 -0.05347656 26.58632813 -0.04445313 27.62890625 -0.03515625 C28.41136719 -0.02355469 29.19382812 -0.01195312 30 0 C28.7361077 11.7467637 27.04149109 23.36350077 25 35 C22.36 35 19.72 35 17 35 C17.3120785 32.64577678 17.62465262 30.29162106 17.9375 27.9375 C18.02451172 27.28072266 18.11152344 26.62394531 18.20117188 25.94726562 C18.28818359 25.29306641 18.37519531 24.63886719 18.46484375 23.96484375 C18.543396 23.3730835 18.62194824 22.78132324 18.70288086 22.17163086 C19.12142679 19.11249691 19.56334267 16.05660131 20 13 C17.36 20.26 14.72 27.52 12 35 C10.02 35 8.04 35 6 35 C5.67 29.39 5.34 23.78 5 18 C4.01 23.61 3.02 29.22 2 35 C-0.31 35 -2.62 35 -5 35 C-4.40441531 27.01677879 -3.30400812 19.19768645 -1.9375 11.3125 C-1.75123047 10.21744141 -1.56496094 9.12238281 -1.37304688 7.99414062 C-0.9191216 5.32878452 -0.46009952 2.66429724 0 0 Z " fill="#F7F5F6" transform="translate(497,383)"/>
<path d="M0 0 C2.31 0 4.62 0 7 0 C7.10586902 4.76145915 6.76908531 9.12771218 5.90625 13.80859375 C5.68066406 15.04931641 5.45507812 16.29003906 5.22265625 17.56835938 C4.86494141 19.48358398 4.86494141 19.48358398 4.5 21.4375 C4.25855034 22.75445397 4.01765988 24.07151059 3.77734375 25.38867188 C3.19037909 28.59349895 2.59776769 31.79717345 2 35 C-0.31 35 -2.62 35 -5 35 C-5 34.34 -5 33.68 -5 33 C-5.7734375 33.495 -5.7734375 33.495 -6.5625 34 C-9.99845505 35.40962258 -12.31736607 35.5168609 -16 35 C-19.43937943 32.29240343 -20.69976196 30.73031921 -21.4453125 26.43359375 C-21.70795706 20.13887904 -20.71419478 15.14180059 -17 10 C-14.21917743 7.07281834 -12.88911767 6.10669412 -8.875 5.625 C-6 6 -6 6 -3 8 C-2.01 5.36 -1.02 2.72 0 0 Z " fill="#F9F8F6" transform="translate(701,383)"/>
<path d="M0 0 C3.125 1.3125 3.125 1.3125 5 4 C6.33954324 12.19570004 4.32305155 20.90812222 3 29 C-0.33333333 29 -3.66666667 29 -7 29 C-7.9590625 29.06960938 -7.9590625 29.06960938 -8.9375 29.140625 C-14.40122699 29.4303681 -14.40122699 29.4303681 -17 27.5625 C-18.51055115 23.69171267 -18.82629437 20.08640127 -18 16 C-15.34985518 13.21037387 -12.76427412 11.07961526 -8.8359375 10.90234375 C-7.61777344 10.91974609 -7.61777344 10.91974609 -6.375 10.9375 C-5.14910156 10.95103516 -5.14910156 10.95103516 -3.8984375 10.96484375 C-2.95871094 10.98224609 -2.95871094 10.98224609 -2 11 C-2.33 10.01 -2.66 9.02 -3 8 C-6.63 7.67 -10.26 7.34 -14 7 C-14 5.35 -14 3.7 -14 2 C-9.42106966 -0.64372421 -5.16507484 -0.62581682 0 0 Z " fill="#FAF6F7" transform="translate(543,389)"/>
<path d="M0 0 C2.5 1.625 2.5 1.625 3.5 3.625 C3.74902619 9.35260246 3.15094612 14.52580266 2 20.125 C1.78537109 21.21554687 1.78537109 21.21554687 1.56640625 22.328125 C1.21766302 24.09509071 0.85980277 25.86025309 0.5 27.625 C-1.48 27.625 -3.46 27.625 -5.5 27.625 C-5.83 26.965 -6.16 26.305 -6.5 25.625 C-7.49 26.285 -8.48 26.945 -9.5 27.625 C-15.7292167 28.18118006 -15.7292167 28.18118006 -18.18359375 26.41015625 C-20.37277252 23.44144795 -20.09566987 20.65752762 -19.96484375 17.078125 C-19.37885873 13.98569987 -18.11376841 12.17740143 -15.5 10.38671875 C-11.6037162 8.90278254 -7.59101294 9.26117474 -3.5 9.625 C-3.83 8.635 -4.16 7.645 -4.5 6.625 C-8.13 6.295 -11.76 5.965 -15.5 5.625 C-15.5 3.645 -15.5 1.665 -15.5 -0.375 C-10.16781294 -2.15239569 -5.2271836 -2.05353641 0 0 Z " fill="#FCFBF8" transform="translate(662.5,390.375)"/>
<path d="M0 0 C2.8100346 1.79363911 4.50940468 3.01880935 6 6 C6.09534254 7.6853196 6.12985758 9.37449266 6.125 11.0625 C6.12886719 12.41021484 6.12886719 12.41021484 6.1328125 13.78515625 C6 16 6 16 5 17 C2.46950598 17.07313567 -0.03304837 17.09247527 -2.5625 17.0625 C-3.27341797 17.05798828 -3.98433594 17.05347656 -4.71679688 17.04882812 C-6.47790013 17.03700864 -8.23896036 17.01907263 -10 17 C-8.90696099 19.58738328 -8.90696099 19.58738328 -7 22 C-4.26622386 22.60393692 -4.26622386 22.60393692 -1.3125 22.3125 C0.17830078 22.24482422 0.17830078 22.24482422 1.69921875 22.17578125 C2.45847656 22.11777344 3.21773437 22.05976563 4 22 C3.125 27.875 3.125 27.875 2 29 C-7.79355768 30.06617269 -7.79355768 30.06617269 -12.09375 27.98828125 C-14.68801239 25.87090533 -15.93918539 24.18244383 -17 21 C-17.60209983 15.02531711 -17.05557132 10.29632363 -14 5 C-9.41011066 -0.01685579 -6.5043392 -0.92919131 0 0 Z " fill="#FAF6F7" transform="translate(598,389)"/>
<path d="M0 0 C0 3 0 3 -0.9765625 4.7265625 C-2.43727954 7.97136142 -2.33963818 10.83174606 -2.375 14.375 C-2.41753906 16.30472656 -2.41753906 16.30472656 -2.4609375 18.2734375 C-1.93135112 22.55500878 -0.698564 24.67946214 2 28 C4.43387753 29.21693876 6.41838846 29.31959896 9.125 29.5625 C10.03507813 29.64628906 10.94515625 29.73007812 11.8828125 29.81640625 C12.58148437 29.87699219 13.28015625 29.93757813 14 30 C14 30.66 14 31.32 14 32 C9.6747634 33.44174553 5.97494523 33.98747261 1.765625 31.8828125 C-0.20521738 30.64579441 -2.11843869 29.36840823 -4 28 C-4.33 29.65 -4.66 31.3 -5 33 C-15.23 33 -25.46 33 -36 33 C-36 32.67 -36 32.34 -36 32 C-32.37 31.67 -28.74 31.34 -25 31 C-24.01 28.36 -23.02 25.72 -22 23 C-22.66 23.33 -23.32 23.66 -24 24 C-26.05859375 24.203125 -26.05859375 24.203125 -28.4375 24.25 C-29.21996094 24.27578125 -30.00242187 24.3015625 -30.80859375 24.328125 C-33 24 -33 24 -34.78515625 22.671875 C-36 21 -36 21 -36 18 C-30.72 17.67 -25.44 17.34 -20 17 C-19.34 12.71 -18.68 8.42 -18 4 C-17.34 4 -16.68 4 -16 4 C-16.47548837 7.58383145 -16.95603003 11.16696764 -17.4375 14.75 C-17.57220703 15.76578125 -17.70691406 16.7815625 -17.84570312 17.828125 C-17.97783203 18.8078125 -18.10996094 19.7875 -18.24609375 20.796875 C-18.36654053 21.69760742 -18.4869873 22.59833984 -18.61108398 23.52636719 C-18.95794242 25.73250008 -19.41747705 27.84576418 -20 30 C-17.36 30 -14.72 30 -12 30 C-11.96261719 29.14277344 -11.92523437 28.28554688 -11.88671875 27.40234375 C-11.51561297 20.94801388 -11.06490552 15.73004075 -8 10 C-7.01 10 -6.02 10 -5 10 C-4.9175 9.0925 -4.835 8.185 -4.75 7.25 C-3.90751268 3.59922161 -2.82118382 2.36615417 0 0 Z " fill="#EB2032" transform="translate(624,388)"/>
<path d="M0 0 C3.375 1 3.375 1 6 2 C6 3.32 6 4.64 6 6 C9.63 6 13.26 6 17 6 C17.33 7.32 17.66 8.64 18 10 C17.00419922 10.03867187 17.00419922 10.03867187 15.98828125 10.078125 C11.8936208 10.34113969 8.62818615 10.71103437 4.875 12.4375 C2.33680973 15.90636003 2.52283855 18.55254018 2.62890625 22.7578125 C2.80913385 25.19723888 2.80913385 25.19723888 5 27 C9.23963281 27.31404687 12.36534398 27.32617985 16 25 C16 25.99 16 26.98 16 28 C17.32 28 18.64 28 20 28 C20 28.66 20 29.32 20 30 C17.04142591 30.05379226 14.08382279 30.09357093 11.125 30.125 C9.86236328 30.15013672 9.86236328 30.15013672 8.57421875 30.17578125 C7.36572266 30.18544922 7.36572266 30.18544922 6.1328125 30.1953125 C5.38918457 30.20578613 4.64555664 30.21625977 3.87939453 30.22705078 C2 30 2 30 0 28 C-0.26991906 25.31160615 -0.08737357 22.70858064 0 20 C-0.66 20.33 -1.32 20.66 -2 21 C-8.36842105 21.46315789 -8.36842105 21.46315789 -10.875 19.625 C-13.42733877 15.93828844 -13.60055458 12.36619412 -13 8 C-9.72743082 1.90625048 -6.99499094 -0.54862674 0 0 Z " fill="#F5B038" transform="translate(641,390)"/>
<path d="M0 0 C0 2.64 0 5.28 0 8 C-0.66386719 7.86980469 -1.32773437 7.73960937 -2.01171875 7.60546875 C-4.74049108 7.17922256 -7.23772835 6.89018492 -10 7 C-12.87646679 9.17202594 -14.40279455 10.80558911 -16 14 C-16.14341073 18.44573272 -16.08426868 21.66292528 -15 26 C-11.37 26 -7.74 26 -4 26 C-3.875 31.75 -3.875 31.75 -5 34 C-15.88406696 34.6249225 -15.88406696 34.6249225 -20.125 32.25 C-24.60271298 26.87674443 -24.65046507 21.60599858 -24.44921875 14.78515625 C-23.66104386 8.14392609 -20.54688483 4.33464443 -15.75 -0.0625 C-10.63316013 -1.80687723 -5.11014059 -1.7033802 0 0 Z " fill="#FBFAF9" transform="translate(645,384)"/>
<path d="M0 0 C14.19 0 28.38 0 43 0 C43 0.99 43 1.98 43 3 C40.73783745 4.54779543 38.44775434 5.77612283 36 7 C36 6.01 36 5.02 36 4 C33.69 4 31.38 4 29 4 C29 4.66 29 5.32 29 6 C28.34 6 27.68 6 27 6 C26.67 10.62 26.34 15.24 26 20 C25.67 20 25.34 20 25 20 C24.98582031 19.26394531 24.97164062 18.52789062 24.95703125 17.76953125 C24.72596113 13.04196159 24.54719946 9.84567189 21.9375 5.8125 C18.85233691 3.90888873 16.64027967 3.26762747 12.99609375 3.515625 C9.38204445 4.39261544 7.45770618 6.30822657 5 9 C2.62941549 13.74116901 2.36527682 18.78757629 3 24 C4.62400184 27.63467079 5.66113044 28.77408696 9 31 C11.96842658 31.45915507 11.96842658 31.45915507 15.1875 31.625 C16.27417969 31.69976562 17.36085938 31.77453125 18.48046875 31.8515625 C19.72763672 31.92503906 19.72763672 31.92503906 21 32 C20.67 32.66 20.34 33.32 20 34 C17.93867858 34.10864945 15.87568679 34.18588321 13.8125 34.25 C12.66394531 34.29640625 11.51539063 34.3428125 10.33203125 34.390625 C6.34926788 33.92371253 4.78651228 32.8274904 2 30 C1.1875 27.25 1.1875 27.25 1 25 C-0.65 25 -2.3 25 -4 25 C-3.85923685 23.0412957 -3.7122324 21.08303907 -3.5625 19.125 C-3.48128906 18.03445313 -3.40007813 16.94390625 -3.31640625 15.8203125 C-3 13 -3 13 -2 11 C-0.68 11 0.64 11 2 11 C2.33 8.36 2.66 5.72 3 3 C2.01 3 1.02 3 0 3 C0 2.01 0 1.02 0 0 Z " fill="#EA2234" transform="translate(579,386)"/>
<path d="M0 0 C0 2.31 0 4.62 0 7 C-2.97 7 -5.94 7 -9 7 C-9 8.32 -9 9.64 -9 11 C-8.236875 11.268125 -7.47375 11.53625 -6.6875 11.8125 C-2.47255113 13.67491927 -2.47255113 13.67491927 -1 16 C-0.35260116 22.79768786 -0.35260116 22.79768786 -2.3125 26.4375 C-5.69579786 29.5701832 -9.31462924 29.10579575 -13.6875 29.0625 C-15.45673828 29.04896484 -15.45673828 29.04896484 -17.26171875 29.03515625 C-18.16535156 29.02355469 -19.06898438 29.01195312 -20 29 C-19.67 26.69 -19.34 24.38 -19 22 C-15.7 22 -12.4 22 -9 22 C-8.67 21.01 -8.34 20.02 -8 19 C-8.7425 18.7525 -9.485 18.505 -10.25 18.25 C-13.39631938 16.81985483 -14.99110465 15.8273342 -17 13 C-17.51829966 9.73471214 -17.77228425 8.07089406 -17 5 C-12.32224605 -1.06843756 -7.24701556 -0.58027705 0 0 Z " fill="#F9F6F7" transform="translate(567,389)"/>
<path d="M0 0 C2.31 0 4.62 0 7 0 C7 1.32 7 2.64 7 4 C8.32 4 9.64 4 11 4 C10.67 6.31 10.34 8.62 10 11 C8.68 11 7.36 11 6 11 C5.34 15.62 4.68 20.24 4 25 C5.32 25 6.64 25 8 25 C8.04254356 26.99954746 8.04080783 29.00041636 8 31 C6.12735324 32.87264676 3.50240053 32.23607378 1.0078125 32.328125 C-1 32 -1 32 -2.765625 30.83984375 C-6.87347557 24.71706648 -2.38537644 12.05073366 -1.01708984 5.03051758 C-0.68280913 3.35272516 -0.34212757 1.67620992 0 0 Z " fill="#F6F5F7" transform="translate(571,386)"/>
<path d="M0 0 C2.31 0 4.62 0 7 0 C7.33 0.66 7.66 1.32 8 2 C8.66 1.34 9.32 0.68 10 0 C10.99 0 11.98 0 13 0 C12.7452486 1.31571603 12.47065859 2.62760376 12.1875 3.9375 C12.03667969 4.66839844 11.88585937 5.39929688 11.73046875 6.15234375 C11.48941406 6.76207031 11.24835937 7.37179687 11 8 C10.01 8.33 9.02 8.66 8 9 C6.22491753 13.18323632 5.51506119 17.39457167 4.875 21.875 C4.70742188 23.02742188 4.53984375 24.17984375 4.3671875 25.3671875 C4.24601563 26.23601562 4.12484375 27.10484375 4 28 C1.36 28 -1.28 28 -4 28 C-2.88156738 18.62420318 -1.65562772 9.29969612 0 0 Z " fill="#F8F6F8" transform="translate(608,390)"/>
<path d="M0 0 C9.25 0 9.25 0 13 1 C10.375 7.75 10.375 7.75 7 10 C6.22411613 11.91018313 6.22411613 11.91018313 5.83203125 14.1328125 C5.66123047 14.93847656 5.49042969 15.74414062 5.31445312 16.57421875 C5.14880859 17.41597656 4.98316406 18.25773437 4.8125 19.125 C4.63525391 19.97449219 4.45800781 20.82398438 4.27539062 21.69921875 C3.83928754 23.79722819 3.4182071 25.89835009 3 28 C0.69 28 -1.62 28 -4 28 C-3.49628894 21.6240784 -2.82551876 15.278985 -2 8.9375 C-1.835 7.66777344 -1.67 6.39804687 -1.5 5.08984375 C-1 2 -1 2 0 0 Z " fill="#F9F9F9" transform="translate(670,390)"/>
<path d="M0 0 C0.66 0 1.32 0 2 0 C1.52451163 3.58383145 1.04396997 7.16696764 0.5625 10.75 C0.42779297 11.76578125 0.29308594 12.7815625 0.15429688 13.828125 C0.02216797 14.8078125 -0.10996094 15.7875 -0.24609375 16.796875 C-0.36654053 17.69760742 -0.4869873 18.59833984 -0.61108398 19.52636719 C-0.95794242 21.73250008 -1.41747705 23.84576418 -2 26 C-0.02 26 1.96 26 4 26 C4 26.66 4 27.32 4 28 C1.36 28 -1.28 28 -4 28 C-4 27.34 -4 26.68 -4 26 C-4.66 25.67 -5.32 25.34 -6 25 C-5.34 23.02 -4.68 21.04 -4 19 C-4.66 19.33 -5.32 19.66 -6 20 C-8.05859375 20.203125 -8.05859375 20.203125 -10.4375 20.25 C-11.21996094 20.27578125 -12.00242187 20.3015625 -12.80859375 20.328125 C-15 20 -15 20 -16.78515625 18.671875 C-18 17 -18 17 -18 14 C-10.08 13.505 -10.08 13.505 -2 13 C-1.34 8.71 -0.68 4.42 0 0 Z " fill="#A63D5C" transform="translate(606,392)"/>
<path d="M0 0 C0 0.99 0 1.98 0 3 C3.63 3 7.26 3 11 3 C11.33 4.32 11.66 5.64 12 7 C11.12988281 7.03867187 11.12988281 7.03867187 10.2421875 7.078125 C4.90191349 7.46586767 0.89843879 8.00160124 -3 12 C-3.61944121 15.08604494 -3.59153027 17.91152944 -3 21 C-1.39519216 24.12606964 -1.39519216 24.12606964 0.9453125 24.51171875 C1.66460938 24.56972656 2.38390625 24.62773437 3.125 24.6875 C4.40375 24.790625 5.6825 24.89375 7 25 C6.67 25.66 6.34 26.32 6 27 C4.56344146 27.08131463 3.1255517 27.13933559 1.6875 27.1875 C0.48673828 27.23970703 0.48673828 27.23970703 -0.73828125 27.29296875 C-3 27 -3 27 -4.7734375 25.796875 C-8.66740611 20.09233499 -5.66259171 9.69441549 -4.6328125 3.3359375 C-4.42398438 2.56507813 -4.21515625 1.79421875 -4 1 C-2 0 -2 0 0 0 Z " fill="#E72B3E" transform="translate(529,393)"/>
<path d="M0 0 C0.33 0 0.66 0 1 0 C1.06316406 0.60328125 1.12632812 1.2065625 1.19140625 1.828125 C1.84292753 6.69719163 1.84292753 6.69719163 4.69140625 10.48828125 C6.82028245 11.71495735 6.82028245 11.71495735 10 13 C9.67 14.32 9.34 15.64 9 17 C6.03 17 3.06 17 0 17 C-0.66 18.98 -1.32 20.96 -2 23 C2.95 22.67 7.9 22.34 13 22 C10 25 10 25 6.64453125 25.29296875 C5.37996094 25.25816406 4.11539063 25.22335937 2.8125 25.1875 C0.90404297 25.14689453 0.90404297 25.14689453 -1.04296875 25.10546875 C-2.01878906 25.07066406 -2.99460937 25.03585937 -4 25 C-3.52776393 21.01997839 -3.04605685 17.04116077 -2.5625 13.0625 C-2.36043945 11.35803711 -2.36043945 11.35803711 -2.15429688 9.61914062 C-2.02216797 8.53955078 -1.89003906 7.45996094 -1.75390625 6.34765625 C-1.63345947 5.34742432 -1.5130127 4.34719238 -1.38891602 3.31665039 C-1 1 -1 1 0 0 Z " fill="#E82A3D" transform="translate(549,395)"/>
<path d="M0 0 C0 3 0 3 -0.9765625 4.7265625 C-2.43727954 7.97136142 -2.33963818 10.83174606 -2.375 14.375 C-2.40335938 15.66148437 -2.43171875 16.94796875 -2.4609375 18.2734375 C-1.93135112 22.55500878 -0.698564 24.67946214 2 28 C4.43387753 29.21693876 6.41838846 29.31959896 9.125 29.5625 C10.03507813 29.64628906 10.94515625 29.73007812 11.8828125 29.81640625 C12.58148437 29.87699219 13.28015625 29.93757813 14 30 C14 30.66 14 31.32 14 32 C10.38069302 33.20643566 7.80768995 33.32268559 4 33 C-0.45910896 30.59894133 -3.80657609 28.03780631 -5.6875 23.25 C-6.16353258 19.82256542 -6.05764728 16.45883697 -6 13 C-6.99 13 -7.98 13 -9 13 C-8.67 12.01 -8.34 11.02 -8 10 C-7.01 10 -6.02 10 -5 10 C-4.9175 9.0925 -4.835 8.185 -4.75 7.25 C-3.90751268 3.59922161 -2.82118382 2.36615417 0 0 Z " fill="#254375" transform="translate(624,388)"/>
<path d="M0 0 C1.8125 0.8125 1.8125 0.8125 2.8125 1.8125 C3.24434702 5.90674198 3.3707866 9.60777629 1.625 13.375 C-0.74651674 15.2558581 -2.23688857 15.13148502 -5.1875 14.8125 C-6.91454516 11.35840969 -6.67634297 7.58931416 -6.1875 3.8125 C-3.44876126 -0.29560811 -3.44876126 -0.29560811 0 0 Z " fill="#F8B136" transform="translate(694.1875,396.1875)"/>
<path d="M0 0 C0.33 0.66 0.66 1.32 1 2 C0.67 2.99 0.34 3.98 0 5 C-0.48234161 10.10807673 -0.72341889 14.52422545 1.5625 19.1875 C4.87696653 21.65210332 6.95402997 21.43349679 11 21 C13.31036915 20.57145005 13.31036915 20.57145005 15 20 C15 20.66 15 21.32 15 22 C16.65 22 18.3 22 20 22 C20 22.66 20 23.32 20 24 C16.66666667 24 13.33333333 24 10 24 C8.72125 24.12375 7.4425 24.2475 6.125 24.375 C2.60449407 24.33602761 2.0169695 24.01272713 -1 21.75 C-4.31133738 17.16507132 -3.3909623 11.36921552 -3 6 C-3.66 6 -4.32 6 -5 6 C-3.63016497 2.83884224 -3.0109362 2.0072908 0 0 Z " fill="#194374" transform="translate(681,396)"/>
<path d="M0 0 C0.66 0 1.32 0 2 0 C-1.16887304 22.80127986 -1.16887304 22.80127986 -3 32 C-1.35 32 0.3 32 2 32 C2 32.66 2 33.32 2 34 C-0.31 34 -2.62 34 -5 34 C-5.26191933 27.02111732 -4.25924445 20.49075191 -3.0625 13.625 C-2.88009766 12.53316406 -2.69769531 11.44132812 -2.50976562 10.31640625 C-1.14074248 2.28148496 -1.14074248 2.28148496 0 0 Z " fill="#1F3D77" transform="translate(495,386)"/>
<path d="M0 0 C0.66 0 1.32 0 2 0 C1.90912109 0.59425781 1.81824219 1.18851562 1.72460938 1.80078125 C1.31031941 4.53297048 0.90510779 7.26643484 0.5 10 C0.35691406 10.93457031 0.21382812 11.86914062 0.06640625 12.83203125 C-0.7350261 18.28940391 -1.15609327 23.48470461 -1 29 C1.97 29.33 4.94 29.66 8 30 C8 30.66 8 31.32 8 32 C0.71084337 33.45783133 0.71084337 33.45783133 -2.3046875 31.515625 C-4.71054792 27.94563857 -4.04488276 25.03847427 -3.375 21 C-3.26816895 20.25049072 -3.16133789 19.50098145 -3.05126953 18.72875977 C-2.7245677 16.48142539 -2.36671871 14.24111474 -2 12 C-1.8040625 10.75089844 -1.608125 9.50179688 -1.40625 8.21484375 C-0.96156308 5.47151781 -0.49527887 2.73457161 0 0 Z " fill="#273E76" transform="translate(569,388)"/>
<path d="M0 0 C0.33 0 0.66 0 1 0 C1.04898438 0.62648438 1.09796875 1.25296875 1.1484375 1.8984375 C1.22320313 2.71570313 1.29796875 3.53296875 1.375 4.375 C1.44460938 5.18710937 1.51421875 5.99921875 1.5859375 6.8359375 C1.82892588 9.20334191 1.82892588 9.20334191 4 11 C8.23963281 11.31404687 11.36534398 11.32617985 15 9 C15 9.99 15 10.98 15 12 C16.32 12 17.64 12 19 12 C19 12.66 19 13.32 19 14 C16.04142591 14.05379226 13.08382279 14.09357093 10.125 14.125 C8.86236328 14.15013672 8.86236328 14.15013672 7.57421875 14.17578125 C6.76855469 14.18222656 5.96289062 14.18867188 5.1328125 14.1953125 C4.38918457 14.20578613 3.64555664 14.21625977 2.87939453 14.22705078 C1 14 1 14 -1 12 C-1.23046875 9.43359375 -1.23046875 9.43359375 -1.1875 6.4375 C-1.18105469 5.44621094 -1.17460938 4.45492188 -1.16796875 3.43359375 C-1 1 -1 1 0 0 Z " fill="#33567F" transform="translate(642,406)"/>
<path d="M0 0 C0.33 0 0.66 0 1 0 C1.09688221 5.44693314 1.12862175 10.63904667 0 16 C-0.66 15.67 -1.32 15.34 -2 15 C-2 14.34 -2 13.68 -2 13 C-2.78375 12.690625 -3.5675 12.38125 -4.375 12.0625 C-7 11 -7 11 -9 10 C-9 8.68 -9 7.36 -9 6 C-6.03 6 -3.06 6 0 6 C0 4.02 0 2.04 0 0 Z " fill="#B72C48" transform="translate(567,390)"/>
<path d="M0 0 C1.19157541 2.38315082 1.00807183 3.67324194 0.875 6.3125 C0.82912799 10.3885556 1.34710458 12.75757226 4 16 C7.40431947 18.26954631 9.16524202 18.36549949 13.1875 18.625 C14.81751953 18.73714844 14.81751953 18.73714844 16.48046875 18.8515625 C17.72763672 18.92503906 17.72763672 18.92503906 19 19 C18.67 19.66 18.34 20.32 18 21 C15.93867858 21.10864945 13.87568679 21.18588321 11.8125 21.25 C10.08966797 21.31960938 10.08966797 21.31960938 8.33203125 21.390625 C4.36020138 20.9249943 2.81228515 19.77629613 0 17 C-1.49341703 14.01316593 -1.13175178 11.25600226 -1.125 7.9375 C-1.12757813 6.66777344 -1.13015625 5.39804687 -1.1328125 4.08984375 C-1 1 -1 1 0 0 Z " fill="#1E437C" transform="translate(581,399)"/>
<path d="M0 0 C1.32 0 2.64 0 4 0 C3.67 4.62 3.34 9.24 3 14 C1.35 14 -0.3 14 -2 14 C-1.85923685 12.0412957 -1.7122324 10.08303907 -1.5625 8.125 C-1.48128906 7.03445313 -1.40007813 5.94390625 -1.31640625 4.8203125 C-1 2 -1 2 0 0 Z " fill="#C92942" transform="translate(577,397)"/>
<path d="M0 0 C0.33 0 0.66 0 1 0 C1.16589226 6.02741895 0.57114133 11.57494793 -0.5 17.5 C-0.64308594 18.32242187 -0.78617188 19.14484375 -0.93359375 19.9921875 C-1.28306912 21.99584627 -1.64068156 23.99808298 -2 26 C-0.35 26 1.3 26 3 26 C3 26.66 3 27.32 3 28 C0.69 28 -1.62 28 -4 28 C-4.27501507 21.80356671 -3.22632202 16.12367944 -2 10.0625 C-1.80921875 9.09248047 -1.6184375 8.12246094 -1.421875 7.12304688 C-0.95378085 4.74746905 -0.47969098 2.37325835 0 0 Z " fill="#274C7A" transform="translate(668,392)"/>
<path d="M0 0 C0.66 0 1.32 0 2 0 C1.52451163 3.58383145 1.04396997 7.16696764 0.5625 10.75 C0.42779297 11.76578125 0.29308594 12.7815625 0.15429688 13.828125 C0.02216797 14.8078125 -0.10996094 15.7875 -0.24609375 16.796875 C-0.36654053 17.69760742 -0.4869873 18.59833984 -0.61108398 19.52636719 C-0.95794242 21.73250008 -1.41747705 23.84576418 -2 26 C-0.02 26 1.96 26 4 26 C4 26.66 4 27.32 4 28 C1.36 28 -1.28 28 -4 28 C-3.33556363 21.60721896 -2.46606595 15.28114356 -1.4375 8.9375 C-1.29892578 8.07189453 -1.16035156 7.20628906 -1.01757812 6.31445312 C-0.68029303 4.20932889 -0.34042164 2.1046193 0 0 Z " fill="#2A3F76" transform="translate(606,392)"/>
<path d="M0 0 C0.33 0 0.66 0 1 0 C0.42029353 8.49569832 -1.23801701 16.68875949 -3 25 C-1.02 25 0.96 25 3 25 C3 25.66 3 26.32 3 27 C0.36 27 -2.28 27 -5 27 C-4.55108327 23.62367841 -4.08918307 20.24925386 -3.625 16.875 C-3.49867188 15.92367188 -3.37234375 14.97234375 -3.2421875 13.9921875 C-2.56589627 9.12289062 -1.78640169 4.61357653 0 0 Z " fill="#3F598A" transform="translate(517,393)"/>
<path d="M0 0 C0.33 0 0.66 0 1 0 C1.06316406 0.60328125 1.12632812 1.2065625 1.19140625 1.828125 C1.84292753 6.69719163 1.84292753 6.69719163 4.69140625 10.48828125 C6.82028245 11.71495735 6.82028245 11.71495735 10 13 C9.67 14.32 9.34 15.64 9 17 C8.67 16.34 8.34 15.68 8 15 C6.8553125 14.566875 6.8553125 14.566875 5.6875 14.125 C2.51512477 12.79702897 0.99966544 11.81434395 -1 9 C-1.39317516 6.19862701 -1.23421751 3.8574536 -1 1 C-0.67 0.67 -0.34 0.34 0 0 Z " fill="#203D76" transform="translate(549,395)"/>
<path d="M0 0 C0.33 0 0.66 0 1 0 C1.13277344 0.63808594 1.26554688 1.27617187 1.40234375 1.93359375 C1.57894531 2.75988281 1.75554688 3.58617187 1.9375 4.4375 C2.19853516 5.67306641 2.19853516 5.67306641 2.46484375 6.93359375 C2.80752994 8.97661204 2.80752994 8.97661204 4 10 C5.34747084 10.23075082 6.70377565 10.41153063 8.0625 10.5625 C9.361875 10.706875 10.66125 10.85125 12 11 C11.67 11.66 11.34 12.32 11 13 C9.56344146 13.08131463 8.1255517 13.13933559 6.6875 13.1875 C5.48673828 13.23970703 5.48673828 13.23970703 4.26171875 13.29296875 C2 13 2 13 0.22265625 11.77734375 C-1.34453961 9.49915168 -1.33932837 8.11738106 -1.25 5.375 C-1.23453125 4.57835937 -1.2190625 3.78171875 -1.203125 2.9609375 C-1 1 -1 1 0 0 Z " fill="#1E407A" transform="translate(524,407)"/>
<path d="M0 0 C-0.75 4.75 -0.75 4.75 -3 7 C-5.625 6.625 -5.625 6.625 -8 6 C-7.625 3.5625 -7.625 3.5625 -7 1 C-4.53721199 -0.231394 -2.7204945 -0.07159196 0 0 Z " fill="#414E80" transform="translate(540,405)"/>
<path d="M0 0 C0.66 0 1.32 0 2 0 C2 0.99 2 1.98 2 3 C5.63 3 9.26 3 13 3 C13.33 4.32 13.66 5.64 14 7 C13.01 6.67 12.02 6.34 11 6 C9.10529184 5.9314505 7.2083166 5.91519628 5.3125 5.9375 C4.31863281 5.94652344 3.32476563 5.95554687 2.30078125 5.96484375 C1.54152344 5.97644531 0.78226563 5.98804688 0 6 C0 4.02 0 2.04 0 0 Z " fill="#1D427B" transform="translate(527,393)"/>
<path d="M0 0 C0.33 0 0.66 0 1 0 C1 1.65 1 3.3 1 5 C5.95 4.67 10.9 4.34 16 4 C13 7 13 7 9.64453125 7.29296875 C8.37996094 7.25816406 7.11539063 7.22335937 5.8125 7.1875 C4.54019531 7.16042969 3.26789062 7.13335937 1.95703125 7.10546875 C0.98121094 7.07066406 0.00539063 7.03585937 -1 7 C-0.67 4.69 -0.34 2.38 0 0 Z " fill="#18417B" transform="translate(546,413)"/>
<path d="M0 0 C0.33 1.32 0.66 2.64 1 4 C1.66 3.67 2.32 3.34 3 3 C4.70702735 2.93003986 6.41668003 2.91559846 8.125 2.9375 C9.03507813 2.94652344 9.94515625 2.95554687 10.8828125 2.96484375 C11.58148437 2.97644531 12.28015625 2.98804688 13 3 C13.33 4.32 13.66 5.64 14 7 C13.01 6.67 12.02 6.34 11 6 C8.93854893 5.931009 6.87498599 5.91532273 4.8125 5.9375 C3.72582031 5.94652344 2.63914062 5.95554687 1.51953125 5.96484375 C0.68808594 5.97644531 -0.14335938 5.98804688 -1 6 C-0.67 4.02 -0.34 2.04 0 0 Z " fill="#1A4478" transform="translate(645,393)"/>
<path d="M0 0 C0.33 0.99 0.66 1.98 1 3 C4.63 3.66 8.26 4.32 12 5 C12 5.66 12 6.32 12 7 C6.81216458 8.03756708 6.81216458 8.03756708 4 8 C1.5 6.3125 1.5 6.3125 0 4 C0 2.68 0 1.36 0 0 Z " fill="#363F73" transform="translate(565,413)"/>
<path d="M0 0 C3.53571429 0.53571429 3.53571429 0.53571429 5 2 C5.16796875 3.99609375 5.16796875 3.99609375 5.1875 6.4375 C5.20167969 7.24058594 5.21585938 8.04367187 5.23046875 8.87109375 C5 11 5 11 3 13 C2.97421875 12.37351562 2.9484375 11.74703125 2.921875 11.1015625 C2.86515625 10.28429687 2.8084375 9.46703125 2.75 8.625 C2.70359375 7.81289063 2.6571875 7.00078125 2.609375 6.1640625 C2.2077908 3.81161073 2.2077908 3.81161073 -0.046875 2.7109375 C-0.69140625 2.47632813 -1.3359375 2.24171875 -2 2 C-1.34 1.34 -0.68 0.68 0 0 Z " fill="#2E4F76" transform="translate(692,396)"/>
<path d="M0 0 C1.26823485 3.65393537 0.75715321 6.49070026 0.0625 10.25 C-0.13214844 11.32765625 -0.32679688 12.4053125 -0.52734375 13.515625 C-0.68332031 14.33546875 -0.83929687 15.1553125 -1 16 C-1.99 15.34 -2.98 14.68 -4 14 C-3.00956295 9.16371695 -2.04301154 4.52381127 0 0 Z " fill="#DB3045" transform="translate(514,402)"/>
<path d="M0 0 C0 3 0 3 -0.9609375 4.796875 C-2.30303037 7.64251553 -2.42086654 10.11995366 -2.625 13.25 C-2.69976563 14.32765625 -2.77453125 15.4053125 -2.8515625 16.515625 C-2.90054688 17.33546875 -2.94953125 18.1553125 -3 19 C-3.33 19 -3.66 19 -4 19 C-4.25060425 17.10688117 -4.47460633 15.21022961 -4.6875 13.3125 C-4.81511719 12.25675781 -4.94273437 11.20101563 -5.07421875 10.11328125 C-4.96577546 5.56437057 -3.14673276 3.14673276 0 0 Z " fill="#3C6291" transform="translate(624,388)"/>
<path d="M0 0 C0.66 0 1.32 0 2 0 C2 0.66 2 1.32 2 2 C4.64 2 7.28 2 10 2 C10 2.33 10 2.66 10 3 C2.74 3 -4.52 3 -12 3 C-12 2.67 -12 2.34 -12 2 C-11.21753906 1.93941406 -10.43507813 1.87882812 -9.62890625 1.81640625 C-8.61699219 1.73261719 -7.60507812 1.64882813 -6.5625 1.5625 C-5.55316406 1.48128906 -4.54382813 1.40007812 -3.50390625 1.31640625 C-1.06359221 1.26788532 -1.06359221 1.26788532 0 0 Z " fill="#C71F38" transform="translate(600,418)"/>
<path d="M0 0 C1.65 0 3.3 0 5 0 C5.33 1.32 5.66 2.64 6 4 C3.36 4 0.72 4 -2 4 C-1.34 2.68 -0.68 1.36 0 0 Z " fill="#60305D" transform="translate(591,396)"/>
<path d="M0 0 C0 0.66 0 1.32 0 2 C1.65 2 3.3 2 5 2 C5 2.66 5 3.32 5 4 C1.33333333 4 -2.33333333 4 -6 4 C-6.66 3.34 -7.32 2.68 -8 2 C-2.25 0 -2.25 0 0 0 Z " fill="#20497C" transform="translate(696,416)"/>
<path d="M0 0 C3.125 -0.1875 3.125 -0.1875 6 0 C5.625 2.4375 5.625 2.4375 5 5 C4.01 5.495 4.01 5.495 3 6 C3 5.01 3 4.02 3 3 C1.35 3 -0.3 3 -2 3 C-1.34 2.01 -0.68 1.02 0 0 Z " fill="#466589" transform="translate(652,405)"/>
<path d="M0 0 C0.66 0 1.32 0 2 0 C1.34 3.96 0.68 7.92 0 12 C-0.66 12 -1.32 12 -2 12 C-1.85904936 10.3745692 -1.71207913 8.74965949 -1.5625 7.125 C-1.48128906 6.22007812 -1.40007812 5.31515625 -1.31640625 4.3828125 C-1 2 -1 2 0 0 Z " fill="#2F3C73" transform="translate(495,386)"/>
<path d="M0 0 C2.9375 0.25 2.9375 0.25 4.9375 1.25 C4.9375 2.24 4.9375 3.23 4.9375 4.25 C1.3075 3.92 -2.3225 3.59 -6.0625 3.25 C-3.0625 0.25 -3.0625 0.25 0 0 Z " fill="#2A4E77" transform="translate(638.0625,389.75)"/>
<path d="M0 0 C0.33 0.99 0.66 1.98 1 3 C2.98 3 4.96 3 7 3 C7 3.66 7 4.32 7 5 C4.36 5 1.72 5 -1 5 C-0.67 3.35 -0.34 1.7 0 0 Z " fill="#17316D" transform="translate(603,415)"/>
<path d="M0 0 C1.65 0 3.3 0 5 0 C5 1.32 5 2.64 5 4 C3.35 4 1.7 4 0 4 C0 2.68 0 1.36 0 0 Z " fill="#F3AF3A" transform="translate(650,408)"/>
<path d="M0 0 C1.32 0.66 2.64 1.32 4 2 C3.67 2.99 3.34 3.98 3 5 C1.68 5 0.36 5 -1 5 C-0.67 3.35 -0.34 1.7 0 0 Z " fill="#FDD898" transform="translate(707,413)"/>
<path d="M0 0 C1.65 0 3.3 0 5 0 C5 1.32 5 2.64 5 4 C3.35 3.67 1.7 3.34 0 3 C0 2.01 0 1.02 0 0 Z " fill="#EA2034" transform="translate(532,408)"/>
<path d="M0 0 C0.33 0.66 0.66 1.32 1 2 C2.65 2 4.3 2 6 2 C6 2.66 6 3.32 6 4 C3.69 4 1.38 4 -1 4 C-1.33 3.01 -1.66 2.02 -2 1 C-1.34 0.67 -0.68 0.34 0 0 Z " fill="#123572" transform="translate(538,416)"/>
<path d="M0 0 C0.33 0.66 0.66 1.32 1 2 C2.98 2 4.96 2 7 2 C7 2.66 7 3.32 7 4 C4.36 4 1.72 4 -1 4 C-0.67 2.68 -0.34 1.36 0 0 Z " fill="#0F326F" transform="translate(513,416)"/>
<path d="M0 0 C0.33 0.99 0.66 1.98 1 3 C2.32 3 3.64 3 5 3 C5 3.66 5 4.32 5 5 C3.02 5 1.04 5 -1 5 C-0.67 3.35 -0.34 1.7 0 0 Z " fill="#12427D" transform="translate(656,415)"/>
</svg>
