<svg width="719" height="100" viewBox="0 0 719 100" fill="none" xmlns="http://www.w3.org/2000/svg">
<g clip-path="url(#clip0_1237_6295)">
<path d="M647.525 22.9733C644.279 24.4093 641.841 26.3333 640.2 28.7627V21.5773H626.421V79.2613H640.2C640.2 79.2613 640.264 58.636 640.228 55.3253C640.172 50.9787 639.883 46.556 641.841 42.52C645.047 35.92 652.344 32.3067 659.459 32.5027V20.9227C655.37 20.5454 651.254 21.2535 647.525 22.9733ZM602.957 25.9507L602.971 26.084C599.04 22.0707 593.341 19.5693 586.628 19.5693C570.159 19.5693 559.268 32.2067 559.268 50.4227C559.268 68.6307 570.159 81.268 586.628 81.268C593.341 81.268 599.04 78.768 602.971 74.752L602.957 74.8853V79.2613H616.749V21.5773H602.957V25.9507ZM588.107 70.4347C579.035 70.4347 573.047 62.4253 573.047 50.4213C573.047 38.412 579.033 30.4027 588.107 30.4027C597.18 30.4027 602.752 39.3627 602.752 50.4227C602.752 61.4747 597.179 70.4347 588.107 70.4347ZM705.036 25.9507L705.049 26.084C701.119 22.0707 695.42 19.5693 688.707 19.5693C672.237 19.5693 661.347 32.2067 661.347 50.4227C661.347 68.6307 672.237 81.268 688.707 81.268C695.42 81.268 701.119 78.768 705.049 74.752L705.036 74.8853V79.2613H718.828V2.64267H705.036V25.9507ZM690.187 70.4347C681.115 70.4347 675.127 62.4253 675.127 50.4213C675.127 38.412 681.113 30.4027 690.187 30.4027C699.26 30.4027 704.832 39.3627 704.832 50.4227C704.832 61.4747 699.259 70.4347 690.187 70.4347ZM521.557 12.1547C530.511 12.1547 537.196 20.0587 538.675 27.708H554.348C551.051 10.8653 537.619 0.004 521.1 0.004C500.157 0.004 486.063 16.2613 486.056 40.6333V40.64C486.069 65.0133 500.157 81.2707 521.1 81.2707C537.619 81.2707 551.052 70.4013 554.348 53.56H538.675C537.195 61.216 530.511 69.12 521.557 69.12C508.765 69.12 501.335 56.1307 501.335 40.6333C501.335 25.144 508.765 12.1533 521.557 12.1533M198.491 20.1733C187.939 20.1733 181.493 25.3093 178.725 28.316C174.915 22.512 168.611 20.1733 161.207 20.1733C153.493 20.1733 148.224 23.308 145.181 25.9V21.568H131.509V79.26H145.181V46.2867C145.181 38.1507 148.979 30.9587 157.475 30.6067C165.723 30.26 168.787 36.572 168.787 42.588V79.26H182.452L182.465 46.2867C182.465 38.1507 186.263 30.9587 194.759 30.6067C202.879 30.268 205.965 36.3747 206.056 42.3067V79.26H219.729L219.743 41.1227C219.743 26.5693 209.776 20.1733 198.491 20.1733ZM318.307 51.716C318.307 58.3587 316.764 70.376 306.057 70.376C296.893 70.376 295.033 62.7187 295.033 57.5067V21.568H281.297V59.6693C281.297 73.2213 289.617 80.66 301.865 80.66C308.959 80.66 314.609 78.0253 318.307 74.0107V79.2733H332.043V21.5667H318.307V51.716ZM372.119 20.1733C364.165 20.1733 359.136 23.316 356.085 26.24V21.5693H342.413V79.26H356.085L356.092 46.2867C356.092 38.1507 360.149 30.952 368.645 30.6C376.76 30.2613 379.592 36.5653 379.683 42.4973V79.26H393.356L393.369 40.7293C393.369 27.3733 383.403 20.1747 372.117 20.1747M256.329 45.3C245.193 42.5107 241.009 40.5027 241.009 36.5867C241.009 32.176 246.009 29.704 251.167 30.0067C257.329 30.38 260.697 33.4867 261.513 37.8253H274.517C273.573 27.5 264.557 19.568 250.469 19.568C237.459 19.568 226.469 26.4853 226.667 37.3893C226.808 45.0533 232.125 49.836 239.924 52.76C248.44 55.9507 259.921 57.1267 260.929 62.5867C261.929 68.0533 256.267 71.0747 249.849 70.384C244.299 69.784 241.143 67.0587 239.676 62.424H225.004C227.449 74.5747 237.156 81.2667 250.933 81.2667C265.459 81.2667 275.757 73.0107 275.511 62.276C275.236 50.4213 262.217 46.772 256.329 45.3ZM440.701 25.9173L440.715 26.0507C436.804 22.0573 431.543 19.5707 424.865 19.5707C408.48 19.5707 399.428 31.024 399.428 48.544C399.428 66.068 408.481 77.5227 424.865 77.5227C431.635 77.5227 436.939 74.972 440.869 70.8867V73.4867C440.869 81.3187 437.896 88.272 428.507 88.8C418.356 89.3773 415.391 82.7 414.996 81.256H401.485C403.245 90.3 411.016 100 427.563 100C445.187 100 454.429 87.7867 454.429 71.5133V21.564H440.707L440.701 25.9173ZM426.612 66.7307C417.765 66.5693 413.152 59.0733 413.152 48.544C413.152 37.9067 417.864 30.348 426.888 30.348C435.917 30.348 440.496 37.9907 440.496 48.4653C440.496 58.8347 435.467 66.568 426.612 66.7307ZM107.617 25.9493L107.624 26.0827C103.693 22.0693 97.9947 19.568 91.2747 19.568C74.8133 19.568 63.9147 32.2053 63.9147 50.4213C63.9147 68.6293 74.8133 81.2667 91.2747 81.2667C97.9947 81.2667 103.693 78.7667 107.624 74.7587L107.617 74.8853V79.2587H121.409V21.5773H107.617V25.9493ZM92.768 70.4333C83.696 70.4333 77.708 62.424 77.708 50.42C77.708 38.4107 83.6947 30.4013 92.768 30.4013C101.841 30.4013 107.413 39.3613 107.413 50.4213C107.413 61.4733 101.841 70.4333 92.768 70.4333ZM33.9467 34.1573C20.76 30.1067 18.2587 26.4507 17.744 21.984C17.2093 17.3147 20.6187 11.1013 29.5 11.1013C38.376 11.1013 41.3907 17.688 42.0733 21.3853H57.1627C55.268 6.8 43.568 0 29.5573 0C15.5387 0 2.02133 7.67067 2.02133 22.3653C2.02133 36.3893 13.856 41.3413 26.768 45.632C39.024 49.7027 43.6027 52.232 43.6027 58.5787C43.6027 64.3973 38.552 69.3347 30.6347 69.3347C22.724 69.3347 17.2933 66.1507 15.2293 59.0933H0C1.21867 67.2573 8.848 81.2667 29.3387 81.2667C49.4773 81.2667 59.0933 69.716 59.0933 57.3107C59.0933 43.2573 46.6453 38.0587 33.9467 34.1573Z" fill="white"/>
</g>
<defs>
<clipPath id="clip0_1237_6295">
<rect width="718.828" height="100" fill="white"/>
</clipPath>
</defs>
</svg>
