<svg width="5310" height="1134" viewBox="0 0 5310 1134" fill="none" xmlns="http://www.w3.org/2000/svg">
<path d="M1133.9 566.966C1133.9 880.06 880.025 1133.86 566.932 1133.86C253.874 1133.86 0.00268555 880.06 0.00268555 566.966C0.00268555 253.944 253.874 0.00170039 566.932 0.00170039C880.025 0.00170039 1133.9 253.944 1133.9 566.966Z" fill="#E83E44"/>
<path d="M94.4428 503.728L95.3704 516.357C95.3373 517.696 95.6895 519.017 96.3852 520.161C97.0809 521.306 98.0908 522.227 99.2948 522.814C100.489 523.304 101.803 523.426 103.068 523.166C104.332 522.905 105.49 522.274 106.394 521.352C127.55 503.656 159.659 487.78 185.417 496.699C205.431 503.656 219.238 524.42 226.337 558.597C241.036 630.057 191.91 664.484 161.407 678.648L160.301 679.111L121.129 698.412C121.129 698.412 118.988 699.268 116.598 698.055C114.243 696.878 113.315 695.273 111.853 691.098C85.1314 592.632 76.1053 489.386 86.0946 393.096C87.0579 385.675 90.2687 376.97 96.1196 369.8L128.728 334.766L132.474 330.77C150.49 313.289 167.008 304.726 176.105 308.472C183.883 311.683 185.738 323.67 185.881 333.232C187.272 384.427 158.695 436.764 98.4385 493.203C98.4385 493.203 93.9434 496.985 94.4428 503.728ZM275 432.732C257.161 422.065 236.79 418.997 216.455 421.922C253.701 382.393 273.929 339.332 273.929 295.879C273.929 291.954 273.715 287.923 273.394 283.963C271.361 256.92 258.731 236.656 239.716 229.735C220.165 222.636 184.953 226.203 128.442 283.749L94.7282 321.601C85.5238 333.018 49.9904 386.746 43.2833 442.65C32.3664 537.87 39.3946 632.768 63.583 717.071C66.4371 726.846 75.4275 750.678 97.2969 759.561C120.558 768.872 142.606 757.634 161.978 747.538L167.186 744.969L187.201 735.979L206.716 727.345L230.583 716.964C247.6 710.007 263.69 703.442 279.174 690.385C300.015 672.715 315.263 649.36 323.055 623.171C327.087 609.543 329.869 594.666 331.403 577.72C332.581 564.591 333.794 539.19 328.977 516.749C318.31 467.481 293.694 443.827 275 432.732Z" fill="white"/>
<path d="M719.958 133.939C708.934 96.2292 690.811 88.2378 685.674 86.4896C639.36 71.6281 590.122 68.2729 542.22 76.7144C470.832 89.8432 409.006 127.196 368.228 182.137C325.345 239.861 308.791 311.713 321.492 384.492C334.335 457.592 371.367 516.708 428.627 555.488C495.698 600.796 585.21 614.603 680.643 594.375C736.976 582.245 783.819 560.232 819.923 529.087C836.048 515.102 839.259 497.336 839.259 484.742C839.259 484.742 839.973 474.681 832.195 442.965C830.055 435.152 826.666 432.94 821.243 432.94C817.318 432.94 813.109 437.4 812.288 438.363C785.46 469.508 744.361 491.199 693.023 501.367C561.592 526.626 460.415 465.191 435.37 344.749C424.596 292.626 433.586 242.573 460.593 203.757C488.028 164.513 532.802 138.398 586.779 130.3C627.609 124.233 669.319 129.35 707.472 145.105C707.472 145.105 723.455 149.672 719.958 133.939Z" fill="white"/>
<path d="M2255.48 95.9997V967.513C2255.48 988.94 2249.57 1005.98 2237.72 1018.51C2225.91 1031.12 2208.49 1037.53 2185.58 1037.53H2114.39V95.9997H2255.48ZM1729.58 679.807C1752.65 679.807 1771.21 673.1 1785.3 659.814C1799.39 646.569 1806.43 624.383 1806.43 593.423V439.383H1576.09V642.014C1576.09 656.186 1579.09 665.93 1584.99 671.455C1590.66 676.889 1598.23 679.887 1606.08 679.807H1729.58ZM1806.43 345.745V131.431H1876.2C1897.67 131.431 1914.62 137.926 1927.24 150.96C1939.85 163.824 1946.05 180.696 1946.05 201.406V541.205C1946.05 576.045 1941.79 607.68 1933.22 636.151C1925.74 662.691 1913.3 687.578 1896.57 709.501C1880.97 729.628 1860.82 745.773 1837.77 756.616C1814.4 767.835 1788.34 773.276 1759.4 773.276H1538.3C1507.25 773.276 1482.28 763.955 1463.43 745.058C1444.53 726.12 1435 699.336 1435 664.538V131.431H1506.11C1528.39 131.431 1545.55 137.926 1557.74 150.96C1569.93 163.824 1576.09 180.696 1576.09 201.406V345.745H1806.43Z" fill="white"/>
<path d="M3245.92 96.0007V967.514C3245.92 988.941 3239.97 1005.98 3228.2 1018.51C3216.39 1031.12 3199.05 1037.53 3176.11 1037.53H3106.26V96.0007H3245.92ZM2642.75 414.92C2642.75 459.293 2647.6 497.044 2657.3 528.172C2666.76 558.932 2681.41 587.847 2700.62 613.67H2705.13C2724.45 589.206 2738.92 562.211 2748.53 532.559C2758.19 502.949 2763 467.054 2763 424.959V131.347H2843.99C2862.46 131.347 2876.13 136.577 2884.98 146.911C2893.88 157.203 2898.36 171.797 2898.36 190.188V414.92C2898.36 486.668 2911.26 546.562 2937.2 594.268C2963.14 641.973 3002.67 676.644 3056.06 698.029L2976.13 763.576C2948.06 754.378 2921.76 740.471 2898.36 722.451C2873.26 703.337 2850.84 680.936 2831.71 655.85H2827.33C2819.17 666.832 2810.45 677.39 2801.22 687.484C2792.63 696.866 2783.55 705.779 2774.01 714.184C2764.31 722.704 2754.02 731.014 2742.92 739.154C2729.94 748.55 2716.6 757.443 2702.94 765.812C2674.76 748.898 2650.97 732.152 2631.36 715.829C2610.49 698.302 2591.99 678.14 2576.31 655.85H2571.93C2531.9 710.641 2484.53 746.578 2429.7 763.576L2350.95 698.029C2402.75 677.361 2441.76 644.082 2468.12 598.19C2494.36 552.13 2507.44 494.471 2507.44 424.959V131.347H2588.5C2606.98 131.347 2620.65 136.577 2629.46 146.911C2638.45 157.203 2642.75 171.797 2642.75 190.188V414.92Z" fill="white"/>
<path d="M4192.52 384.794H4358V478.461H4192.52V384.794ZM4198.2 96V967.913C4198.2 989.331 4192.37 1006.43 4180.41 1018.94C4168.6 1031.51 4151.27 1038 4128.25 1038H4057.14V96H4198.2ZM3429.1 749.156C3467.4 739.935 3504.5 726.302 3539.65 708.531C3577.79 689.677 3612.87 666.751 3645.08 639.651C3676.71 613.382 3703.58 581.869 3724.53 546.487C3745.28 511.293 3755.58 473.836 3755.58 433.714V314.909C3755.58 254.877 3727.54 224.911 3671.26 224.911H3441.36V131.295H3707.85C3836.64 131.295 3900.96 188.812 3900.96 303.596V411.19C3901.46 461.699 3889.46 511.547 3866.04 556.291C3842.58 600.603 3811.8 640.62 3774.98 674.645C3737.26 709.742 3694.89 739.468 3649.05 762.982C3602.32 787.116 3555.33 804.662 3508 815.773L3429.1 749.156ZM3765.48 481.227H3419V387.006H3765.48V481.227Z" fill="white"/>
<path d="M5185.27 531.425V583.559C5185.27 596.213 5181.3 606.336 5173.58 614.181C5165.78 621.858 5154.86 625.781 5140.81 625.781H4623.39C4593.11 625.781 4568.56 616.164 4549.71 596.888C4530.81 577.696 4521.45 550.659 4521.45 515.819V245.11C4521.45 211.071 4530.81 184.456 4549.71 165.18C4568.56 145.904 4593.11 136.371 4623.39 136.371H5173.08V187.451C5173.08 201.412 5168.94 212.084 5160.85 219.55C5152.7 226.973 5141.95 230.601 5128.58 230.601H4702.19C4696.79 230.421 4691.4 231.312 4686.35 233.224C4681.3 235.135 4676.67 238.028 4672.74 241.736C4664.94 249.16 4661.06 260.168 4661.06 275.1V491.608C4661.06 506.328 4664.43 516.62 4671.06 522.652C4677.72 528.599 4687 531.425 4698.85 531.425H5185.27ZM5309.78 851.736C5309.78 868.06 5305.23 880.292 5295.9 888.433C5287.31 896.359 5276.04 900.743 5264.35 900.707H4408.07V807.195H5309.78V851.736Z" fill="white"/>
</svg>
