<svg width="654" height="131" viewBox="0 0 654 131" fill="none" xmlns="http://www.w3.org/2000/svg">
<path d="M26.4 1.49784C15.0667 4.56451 5.33333 13.6312 1.6 24.8312C0.533333 27.8978 0 45.0978 0 79.7645V130.298H6H11.8667L12.2667 79.2312L12.6667 28.1645L16 23.2312C17.7333 20.5645 21.4667 17.2312 24.1333 15.7645C29.0667 12.9645 29.0667 12.9645 326.533 12.9645C653.333 12.9645 627.867 12.2978 635.067 20.9645C637.067 23.2312 639.2 27.2312 640 30.0312C640.8 32.9645 641.333 53.8978 641.333 82.5645V130.298H647.333H653.333V80.2978C653.333 33.3645 653.2 30.0312 650.667 23.0978C647.6 15.0978 639.6 6.69785 631.067 2.69784C626.267 0.431178 611.467 0.297845 329.333 0.0311781C92.8 -0.102155 31.4667 0.164511 26.4 1.49784Z" fill="white"/>
<path d="M306.4 48.8308L306 58.9642L299.333 59.6308C291.333 60.4308 279.6 66.5642 277.467 71.0975C276.667 72.9642 276 80.4308 276 87.7642C276 100.164 276.267 101.364 279.333 104.298C283.2 108.298 284.667 108.298 296.267 105.364C304.533 103.231 305.467 103.231 306.933 105.231C308.4 107.098 310.933 107.364 317.6 106.431C318.133 106.298 318.4 91.0975 318.267 72.5642L318 38.9642L312.4 38.8308L306.8 38.6975L306.4 48.8308ZM306.4 83.3642L306 97.6308L297.067 98.0308L288 98.4308V83.7642C288 75.3642 288.533 68.9642 289.333 68.6975C290 68.4308 294.267 68.5642 298.667 68.6975L306.8 69.2308L306.4 83.3642Z" fill="white"/>
<path d="M380.667 39.3648C380.267 39.7648 380 42.0315 380 44.5648C380 48.9648 380.133 48.9648 386.133 48.9648H392.133L391.733 43.8982C391.333 39.2315 391.067 38.9648 386.4 38.8315C383.6 38.6982 381.067 38.9648 380.667 39.3648Z" fill="white"/>
<path d="M583.2 40.1642C582.933 40.9642 582.533 45.4975 582.4 50.2975L582 58.9642L575.333 59.6308C567.467 60.4308 558.8 64.6975 554.8 69.7642C552.4 72.8308 552 75.0975 552 87.2308C552 100.164 552.267 101.364 555.333 104.298C559.2 108.298 561.467 108.431 572.8 105.364C580.933 103.231 581.333 103.231 583.067 105.498C584.267 107.098 586.133 107.764 589.333 107.364L594 106.964V72.9642V38.9642L588.933 38.8308C586.133 38.6975 583.467 39.3642 583.2 40.1642ZM582.4 83.2308L582 97.6308H573.333H564.667L564.267 83.2308L563.867 68.9642H573.333H582.8L582.4 83.2308Z" fill="white"/>
<path d="M58.9334 75.8982L59.3334 106.965H64.6667H70.0001L70.6667 93.6315L71.3334 80.2982H84.0001H96.6668L97.3334 93.6315L98.0001 106.965H103.333H108.667L109.067 75.8982L109.333 44.9648H103.333H97.3334V57.6315V70.2982H84.0001H70.6667V57.6315V44.9648H64.6667H58.6667L58.9334 75.8982Z" fill="white"/>
<path d="M425.6 49.0977C414.934 55.3643 414.667 56.031 414.667 77.8977C414.667 88.5644 415.334 98.1644 416.134 100.031C418.534 105.231 422.534 106.831 434.667 107.231C444.267 107.498 446.934 107.098 453.067 104.298C463.867 99.3644 461.867 97.7643 443.867 97.231C435.6 96.9643 428.534 96.6977 428.4 96.431C428.267 96.2977 428 86.9644 427.867 75.631L427.734 54.9643L443.467 54.2977L459.334 53.631V49.631V45.631L446 45.3643C433.2 44.9643 432.4 45.0977 425.6 49.0977Z" fill="white"/>
<path d="M246.667 60.9651C241.867 62.4317 237.867 63.4984 237.733 63.6317C237.467 63.6317 237.333 62.6984 237.333 61.6317C237.333 60.1651 235.733 59.6317 231.333 59.6317H225.333V82.9651V106.298L228.533 107.098C236.4 109.098 236.667 108.565 237.067 87.8984C237.333 74.1651 237.867 68.9651 239.067 68.8317C241.6 68.5651 254 69.0984 254.4 69.6317C254.667 69.7651 254.933 78.2984 255.067 88.4317L255.333 106.965H260.667H266L266.4 85.3651L266.667 63.8984L263.2 61.0984C258.933 57.7651 257.867 57.7651 246.667 60.9651Z" fill="white"/>
<path d="M537.467 61.0978C533.333 63.4978 532.8 63.6312 531.733 61.7645C530.933 60.4312 528.667 59.6312 525.2 59.6312H520L520.267 83.2312L520.667 106.965L524.667 107.098C532 107.231 531.867 107.498 531.733 87.2312V68.2978H540.8H550L550.4 63.2312C550.8 58.4312 550.667 58.2978 546.4 58.2978C544 58.2978 540 59.4978 537.467 61.0978Z" fill="white"/>
<path d="M120 80.1643C120 98.831 120.267 100.964 122.8 104.164C126 108.164 129.867 108.564 139.467 105.631C149.467 102.564 149.2 102.298 149.6 115.898C150 126.164 150.4 128.298 152.267 128.698C153.733 128.964 155.6 127.098 157.867 123.231C161.333 117.498 161.333 117.098 161.333 88.431V59.4976L155.733 59.8976L150 60.2976L149.6 79.231L149.2 98.2976H140.667H132V78.9643V59.631H126H120V80.1643Z" fill="white"/>
<path d="M172.667 60.9645C172.267 61.6312 172 70.5645 172.133 80.5645C172.4 107.365 174.533 110.031 192 105.498C200.933 103.231 201.467 103.231 203.067 105.498C204.267 107.098 206 107.631 208.667 107.098C210.933 106.831 213.067 106.431 213.733 106.431C214.267 106.298 214.667 95.7645 214.667 82.9645V59.6312H208.667H202.8L202.4 78.5645L202 97.6312H193.333H184.667L184.267 78.5645L183.867 59.6312H178.667C175.867 59.6312 173.067 60.1645 172.667 60.9645Z" fill="white"/>
<path d="M336 64.6975C327.6 70.4308 326.667 72.9641 326.933 88.9641C327.067 106.964 330.133 109.631 346.133 105.631C355.6 103.231 356.133 103.231 357.733 105.497C358.933 107.097 360.8 107.764 364 107.364L368.667 106.964L369.067 83.2308L369.333 59.6308H356.4C343.6 59.7641 343.2 59.7641 336 64.6975ZM357.333 83.7641V98.4308L348.4 98.0308L339.333 97.6308L338.933 83.3641C338.533 67.2308 338 68.0308 350.133 68.6975L357.333 69.2308V83.7641Z" fill="white"/>
<path d="M380.267 83.2315L380.667 106.965H386H391.333L391.733 83.2315L392 59.6315H386H380L380.267 83.2315Z" fill="white"/>
<path d="M476.4 63.8978C472.667 66.2978 468.934 69.6311 468.134 71.2311C467.334 72.9645 466.667 80.4311 466.667 87.7645C466.667 100.164 466.934 101.364 470 104.298C473.867 108.298 475.334 108.298 487.067 105.364C495.734 103.098 496.267 103.098 497.467 105.364C499.067 108.164 505.734 108.431 507.867 105.764C508.934 104.564 509.334 97.0978 509.067 82.1645L508.667 60.2978L496 60.0311C483.867 59.6311 483.067 59.8978 476.4 63.8978ZM497.067 83.3645L496.667 97.6311H488H479.334L478.934 83.3645C478.534 67.2311 478 68.0311 490.267 68.6978L497.467 69.2311L497.067 83.3645Z" fill="white"/>
</svg>
