<svg width="755" height="134" viewBox="0 0 755 134" fill="none" xmlns="http://www.w3.org/2000/svg">
<g clip-path="url(#clip0_1237_6299)">
<path d="M90.8749 16.2502C103.492 24.9797 112.296 37.3274 116.375 52.1877C119.281 69.9148 117.115 86.8841 107 102C97.3596 114.341 85.3515 122.52 69.9999 126C66.2596 126.439 62.5761 126.525 58.8124 126.5C57.8079 126.494 56.8034 126.489 55.7684 126.483C40.3732 126.116 27.4588 120.318 16.2499 109.75C2.88137 95.6403 -0.52074 80.3311 -0.281384 61.5471C-0.0540418 54.8041 1.3187 49.2237 3.99987 43.0002C4.32729 42.1481 4.65471 41.296 4.99205 40.4181C10.2278 28.2842 21.4095 17.8082 33.3749 12.5041C52.5666 4.94304 72.9154 5.63774 90.8749 16.2502ZM30.0624 28.4377C24.5862 34.4951 23.309 39.5472 23.5311 47.6838C24.6973 55.9347 30.0522 61.8261 36.2772 67.0119C41.9098 71.1252 47.9581 74.5348 53.9999 78.0002C56.2928 79.328 58.5832 80.6601 60.871 81.9968C62.337 82.8527 63.8056 83.7042 65.2772 84.5505C71.3704 88.0937 76.4768 91.0949 78.9999 98.0002C79.7975 103.463 78.8747 107.209 75.9999 112C82.5763 110.151 87.577 105.329 91.0624 99.6252C92.5671 93.8069 92.1274 89.2553 89.4374 83.8752C82.6389 75.8565 74.2451 71.0351 65.1249 66.0627C41.2734 53.0525 41.2734 53.0525 36.7108 42.5197C35.143 36.9633 36.0537 32.7574 38.7499 27.7502C41.0186 24.9773 43.3959 22.4595 45.9999 20.0002C40.2263 20.0002 34.0695 24.5847 30.0624 28.4377ZM60.9999 22.0002C61.3312 22.6086 61.6624 23.2171 62.0038 23.8439C63.7 29.2188 63.0374 34.7552 62.8339 40.34C62.665 47.1642 62.665 47.1642 65.9999 53.0002C68.2671 55.0444 68.2671 55.0444 70.9999 56.0002C73.8057 55.678 73.8057 55.678 75.9999 54.0002C77.0879 51.6436 77.0879 51.6436 76.9999 49.0002C76.0915 46.9335 76.0915 46.9335 74.9999 45.0002C74.9999 43.6802 74.9999 42.3602 74.9999 41.0002C77.1249 41.0002 77.1249 41.0002 79.9999 42.0002C81.6615 44.0102 83.0757 46.0837 84.4725 48.2853C84.9765 48.8512 85.4806 49.4171 85.9999 50.0002C90.0461 50.4583 90.0461 50.4583 92.3124 47.8127C94.2314 45.1891 94.2314 45.1891 93.9217 42.5002C93.2047 39.8183 93.2047 39.8183 90.7147 38.4181C89.7982 38.0121 88.8817 37.606 87.9374 37.1877C87.0183 36.7687 86.0992 36.3498 85.1522 35.9181C84.4419 35.6152 83.7317 35.3123 82.9999 35.0002C82.9999 34.0102 82.9999 33.0202 82.9999 32.0002C85.3099 32.3302 87.6199 32.6602 89.9999 33.0002C89.6464 30.4375 89.2252 29.2255 87.3749 27.3752C81.7543 24.1212 75.4088 23.5386 69.0624 22.8752C67.8935 22.7456 67.8935 22.7456 66.701 22.6135C64.8012 22.4037 62.9006 22.2012 60.9999 22.0002ZM17.9999 83.0002C18.5005 92.1788 22.4959 99.4962 28.9999 106C38.4597 113.005 48.3219 115.684 59.9999 115C59.9999 114.01 59.9999 113.02 59.9999 112C56.6999 110.68 53.3999 109.36 49.9999 108C50.5909 103.154 51.9793 99.3927 53.9999 95.0002C48.8648 95.6421 44.0055 96.6829 38.9999 98.0002C38.3399 94.0402 37.6799 90.0802 36.9999 86.0002C36.0099 86.0002 35.0199 86.0002 33.9999 86.0002C31.6539 89.2046 31.6539 89.2046 30.9999 93.0002C25.9417 91.81 24.091 88.7712 21.3319 84.6799C20.8923 84.1256 20.4528 83.5713 19.9999 83.0002C19.3399 83.0002 18.6799 83.0002 17.9999 83.0002Z" fill="white"/>
<path d="M738 29C743.61 29 749.22 29 755 29C755 54.08 755 79.16 755 105C750.05 105 745.1 105 740 105C739.67 104.01 739.34 103.02 739 102C738.402 102.474 737.804 102.949 737.188 103.438C731.867 107.238 725.255 106.526 719 106C712.258 104.124 708.249 99.8635 704.809 93.9531C700.824 85.6788 700.562 75.7736 702.766 66.9258C705.66 59.2431 709.456 54.4857 716.938 50.9453C724.246 48.6893 733.047 48.7023 740 52C739.886 49.3949 739.76 46.7915 739.625 44.1875C739.594 43.4495 739.563 42.7115 739.531 41.9512C739.327 38.1811 739.136 36.2035 737 33C737.33 31.68 737.66 30.36 738 29ZM720 65C716.648 71.3251 715.991 78.2584 717.469 85.2031C718.642 88.9728 719.777 90.7967 722.75 93.5C727.127 95.5199 730.257 96.0019 734.864 94.3193C737.095 93.0738 738.445 92.0476 740 90C740.883 85.5405 740.659 81.2112 740.438 76.6875C740.406 75.47 740.374 74.2525 740.342 72.998C740.26 69.9962 740.145 66.9994 740 64C732.66 60.0691 726.519 58.7846 720 65Z" fill="white"/>
<path d="M197 29C202.61 29 208.22 29 214 29C214.33 36.92 214.66 44.84 215 53C217.31 52.01 219.62 51.02 222 50C228.83 49.0877 235.387 49.2124 241.414 52.7852C244.383 55.0595 246.341 57.683 248 61C248.089 62.4197 248.118 63.8436 248.114 65.2661C248.113 66.1469 248.113 67.0276 248.113 67.9351C248.108 68.8872 248.103 69.8393 248.098 70.8203C248.096 71.7941 248.095 72.7679 248.093 73.7712C248.088 76.8892 248.075 80.0071 248.062 83.125C248.057 85.2357 248.053 87.3464 248.049 89.457C248.038 94.638 248.021 99.819 248 105C243.05 105 238.1 105 233 105C232.975 103.87 232.95 102.74 232.924 101.575C232.83 97.3781 232.73 93.1812 232.628 88.9844C232.584 87.1687 232.543 85.3529 232.503 83.5371C232.445 80.9257 232.381 78.3144 232.316 75.7031C232.3 74.8926 232.283 74.082 232.266 73.2469C232.172 69.6828 231.954 66.4331 231 63C229.272 62.9183 227.542 62.8605 225.812 62.8125C224.85 62.7777 223.887 62.7429 222.895 62.707C219.3 63.0709 217.754 63.6305 215 66C214.476 69.115 214.278 71.7031 214.293 74.8242C214.278 75.6856 214.263 76.547 214.247 77.4345C214.204 80.1858 214.195 82.9359 214.188 85.6875C214.164 87.5528 214.139 89.418 214.111 91.2832C214.048 95.8556 214.016 100.427 214 105C209.05 105 204.1 105 199 105C198.98 102.925 198.96 100.851 198.94 98.7136C198.873 91.8643 198.795 85.0151 198.712 78.166C198.662 74.0128 198.616 69.8596 198.578 65.7063C198.541 61.6991 198.495 57.6922 198.442 53.6852C198.423 52.1554 198.408 50.6256 198.397 49.0957C198.38 46.9551 198.351 44.815 198.319 42.6746C198.306 41.4554 198.292 40.2363 198.278 38.9803C198.221 35.8168 198.221 35.8168 196 33C196.33 31.68 196.66 30.36 197 29Z" fill="white"/>
<path d="M349.816 28.9023C351.398 28.9081 352.981 28.9211 354.562 28.9375C357.347 28.9581 360.131 28.9787 363 29C363 37.25 363 45.5 363 54C365.64 52.68 368.28 51.36 371 50C378.316 48.8369 385.15 49.0269 391.352 53.3203C396.164 58.2242 397.456 61.5901 397.453 68.3883C397.433 69.3198 397.412 70.2512 397.391 71.2109C397.385 72.1791 397.379 73.1472 397.373 74.1447C397.351 77.222 397.301 80.2981 397.25 83.375C397.23 85.4674 397.212 87.5599 397.195 89.6523C397.151 94.7687 397.082 99.8841 397 105C392.05 105 387.1 105 382 105C381.975 103.865 381.95 102.729 381.924 101.559C381.83 97.3492 381.73 93.1393 381.628 88.9294C381.584 87.1069 381.543 85.2843 381.503 83.4617C381.445 80.8428 381.381 78.2242 381.316 75.6055C381.3 74.7897 381.283 73.974 381.266 73.1336C381.18 69.8582 381.042 67.1274 380 64C377.701 62.8506 376.245 62.8016 373.688 62.75C372.549 62.7113 372.549 62.7113 371.387 62.6719C368.103 63.1233 366.551 63.8369 364 66C363.476 69.115 363.278 71.7031 363.293 74.8242C363.278 75.6856 363.263 76.547 363.247 77.4345C363.204 80.1858 363.195 82.9359 363.188 85.6875C363.164 87.5528 363.139 89.418 363.111 91.2832C363.048 95.8556 363.016 100.427 363 105C358.05 105 353.1 105 348 105C347.98 102.941 347.96 100.882 347.94 98.7612C347.873 91.9479 347.795 85.1346 347.712 78.3214C347.663 74.1919 347.616 70.0623 347.578 65.9326C347.541 61.9449 347.495 57.9574 347.442 53.9698C347.423 52.4509 347.408 50.9319 347.397 49.4129C347.38 47.2801 347.351 45.1478 347.319 43.0151C347.306 41.8027 347.292 40.5902 347.278 39.341C346.995 35.9366 346.217 33.1804 345 30C346 29 346 29 349.816 28.9023Z" fill="white"/>
<path d="M186 32.0004C186 36.6204 186 41.2404 186 46.0004C180.834 45.1394 179.098 44.4647 174.926 41.9301C170.495 39.7913 165.775 39.547 161.062 40.7504C158.709 41.9774 158.709 41.9774 157 45.0004C156.936 48.3866 157.022 50.8891 159.336 53.5192C163.768 57.2707 168.282 59.8698 173.5 62.3754C180.817 66.0577 187.279 69.8368 190 78.0004C191.146 92.9539 191.146 92.9539 186 99.0004C177.674 105.992 167.511 106.872 157 106C150.69 104.875 144.838 103.329 140 99.0004C138.778 96.3416 138.701 94.8953 139.625 92.1254C140.353 90.389 141.171 88.691 142 87.0004C143.139 87.5244 143.139 87.5244 144.301 88.059C145.294 88.514 146.288 88.9691 147.312 89.4379C148.298 89.8903 149.285 90.3428 150.301 90.809C154.531 92.6761 157.829 93.2135 162.437 93.3129C164.137 93.369 164.137 93.369 165.871 93.4262C169.074 93.2514 169.074 93.2514 171.379 91.1957C173.748 87.9873 173.546 85.892 173 82.0004C169.897 76.9868 165.873 75.1016 160.75 72.6254C152.427 68.3925 144.539 64.1931 140.621 55.2426C139.063 49.6185 139.29 44.1288 141.125 38.6254C150.973 24.8383 171.799 24.8998 186 32.0004Z" fill="white"/>
<path d="M599 34.0002C599 38.6202 599 43.2402 599 48.0002C592.273 46.8791 592.273 46.8791 588.812 45.0002C582.652 41.6955 576.591 40.7531 569.742 42.6135C564.233 44.9908 561.383 48.5677 559 54.0002C555.714 63.5474 555.667 75.0433 560.07 84.2346C562.817 88.9681 565.471 91.9836 570.898 93.5471C579.006 95.2952 585.511 93.109 593 90.0002C594.666 89.3327 596.333 88.6658 598 88.0002C601 93.1602 601 93.1602 601 96.6252C599.388 100.454 596.8 102.182 593.066 103.879C583.008 107.815 571.288 108.761 561 105C550.749 100.257 545.737 93.7773 541.762 83.3947C537.683 70.5748 539.26 56.0893 545.25 44.1877C549.677 36.809 555.954 32.7722 564 30.0002C575.623 27.0991 588.349 28.6749 599 34.0002Z" fill="white"/>
<path d="M632.187 49.625C632.935 49.6115 633.682 49.5979 634.452 49.584C641.175 49.6373 646.702 51.0448 651.937 55.5C654.675 58.8189 655.125 61.2148 655.113 65.3796C655.113 66.2603 655.113 67.141 655.113 68.0484C655.108 68.9953 655.103 69.9423 655.098 70.918C655.096 71.8903 655.095 72.8627 655.093 73.8646C655.088 76.9722 655.075 80.0798 655.062 83.1875C655.057 85.2936 655.053 87.3997 655.049 89.5059C655.038 94.6706 655.02 99.8353 655 105C650.05 105 645.1 105 640 105C639.67 104.01 639.34 103.02 639 102C637.948 102.66 636.896 103.32 635.812 104C630.056 106.852 624.281 106.901 618 106C613.579 104.382 610.876 102.123 608 98.4375C606.132 92.0163 605.749 85.5935 608.687 79.5C613.191 74.6308 617.329 71.3402 624.172 70.8418C626.576 70.8039 628.971 70.8252 631.375 70.875C632.206 70.884 633.038 70.893 633.894 70.9023C635.93 70.9257 637.965 70.9616 640 71C639.34 68.36 638.68 65.72 638 63C632.322 60.8707 628.683 60.8776 623 63C621.948 63.5362 620.896 64.0725 619.812 64.625C617 66 617 66 612 66C612 61.71 612 57.42 612 53C618.84 50.6547 625.006 49.6783 632.187 49.625ZM624 83C621.687 86.4692 621.575 87.9221 622 92C622.871 94.0388 622.871 94.0388 625 95C629.714 95.6286 632.864 95.492 637 93.0625C639.23 91.3127 639.911 90.4779 640.433 87.6641C640.437 85.3999 640.308 83.2418 640 81C634.268 80.766 629.387 80.911 624 83Z" fill="white"/>
<path d="M430.188 49.625C430.935 49.6115 431.683 49.5979 432.453 49.584C438.445 49.6315 443.893 50.4849 448.666 54.3481C452.735 58.6207 453.683 61.798 453.68 67.654C453.649 68.6022 453.618 69.5504 453.586 70.5273C453.578 71.5163 453.569 72.5052 453.56 73.5241C453.527 76.663 453.452 79.7993 453.375 82.9375C453.345 85.0735 453.318 87.2096 453.293 89.3457C453.227 94.5648 453.124 99.782 453 105C448.05 105 443.1 105 438 105C437.67 104.01 437.34 103.02 437 102C435.948 102.66 434.896 103.32 433.813 104C427.622 107.084 420.365 107.281 413.75 105.34C410.077 103.511 407.487 100.787 405.656 97.125C403.955 91.6148 404.321 86.0379 406.125 80.625C409.838 75.4275 413.855 72.5735 420 71C423.131 70.7746 426.238 70.81 429.375 70.875C430.207 70.884 431.038 70.893 431.895 70.9023C433.93 70.9257 435.965 70.9616 438 71C437.34 68.36 436.68 65.72 436 63C430.322 60.8707 426.683 60.8776 421 63C419.948 63.5362 418.896 64.0725 417.813 64.625C415 66 415 66 410 66C410 61.71 410 57.42 410 53C416.841 50.6547 423.007 49.6783 430.188 49.625ZM422 83C419.687 86.4692 419.575 87.9221 420 92C420.872 94.0388 420.872 94.0388 423 95C427.975 95.5709 430.037 95.5426 434.438 93.0625C436.275 91.594 436.275 91.594 438 90C438.072 88.4807 438.084 86.9583 438.063 85.4375C438.054 84.6112 438.045 83.7849 438.035 82.9336C438.024 82.2955 438.012 81.6574 438 81C432.268 80.766 427.388 80.911 422 83Z" fill="white"/>
<path d="M504.438 51.0628C509.045 54.5464 512.838 58.2205 514 64.0003C514.083 65.4043 514.118 66.8116 514.114 68.218C514.113 69.0386 514.113 69.8591 514.113 70.7046C514.108 71.5807 514.103 72.4569 514.098 73.3596C514.096 74.264 514.095 75.1684 514.093 76.1002C514.088 78.9836 514.075 81.8669 514.062 84.7503C514.057 86.7073 514.053 88.6643 514.049 90.6214C514.038 95.4144 514.021 100.207 514 105C508.72 105 503.44 105 498 105C497.505 84.2103 497.505 84.2103 497 63.0003C488.452 61.7171 488.452 61.7171 482 65.0003C481.34 65.0003 480.68 65.0003 480 65.0003C480 78.2003 480 91.4003 480 105C475.05 105 470.1 105 465 105C464.98 103.715 464.96 102.429 464.94 101.104C464.863 96.3011 464.775 91.4985 464.683 86.6958C464.645 84.6233 464.61 82.5507 464.578 80.4781C464.532 77.4865 464.474 74.4954 464.414 71.5042C464.403 70.5882 464.391 69.6722 464.379 68.7284C464.261 63.5002 463.669 58.7581 462.325 53.6974C462.218 53.1373 462.111 52.5773 462 52.0003C463 51.0003 463 51.0003 466.816 50.9026C468.398 50.9093 469.981 50.9212 471.562 50.9378C472.369 50.9423 473.175 50.9468 474.006 50.9514C476.004 50.9633 478.002 50.9812 480 51.0003C480.33 51.9903 480.66 52.9803 481 54.0003C481.887 53.3403 482.774 52.6803 483.688 52.0003C489.912 48.4305 497.772 49.0024 504.438 51.0628Z" fill="white"/>
<path d="M327.438 51.0628C332.045 54.5464 335.838 58.2205 337 64.0003C337.083 65.4043 337.118 66.8116 337.114 68.218C337.113 69.0386 337.113 69.8591 337.113 70.7046C337.108 71.5807 337.103 72.4569 337.098 73.3596C337.096 74.264 337.095 75.1684 337.093 76.1002C337.088 78.9836 337.075 81.8669 337.062 84.7503C337.057 86.7073 337.053 88.6643 337.049 90.6214C337.038 95.4144 337.021 100.207 337 105C331.72 105 326.44 105 321 105C320.505 84.2103 320.505 84.2103 320 63.0003C311.452 61.7171 311.452 61.7171 305 65.0003C304.34 65.0003 303.68 65.0003 303 65.0003C303 78.2003 303 91.4003 303 105C298.05 105 293.1 105 288 105C287.98 103.715 287.96 102.429 287.94 101.104C287.863 96.3011 287.775 91.4985 287.683 86.6958C287.645 84.6233 287.61 82.5507 287.578 80.4781C287.532 77.4865 287.474 74.4954 287.414 71.5042C287.403 70.5882 287.391 69.6722 287.379 68.7284C287.261 63.5002 286.669 58.7581 285.325 53.6974C285.218 53.1373 285.111 52.5773 285 52.0003C286 51.0003 286 51.0003 289.816 50.9026C291.398 50.9093 292.981 50.9212 294.562 50.9378C295.369 50.9423 296.175 50.9468 297.006 50.9514C299.004 50.9633 301.002 50.9812 303 51.0003C303.33 51.9903 303.66 52.9803 304 54.0003C304.887 53.3403 305.774 52.6803 306.688 52.0003C312.912 48.4305 320.772 49.0024 327.438 51.0628Z" fill="white"/>
<path d="M699 50.0003C699 54.2903 699 58.5803 699 63.0003C696.005 62.8701 693.01 62.7399 690.016 62.6097C686.986 62.7688 686.986 62.7688 684.85 64.4807C682.227 68.0536 682.397 71.4341 682.391 75.7034C682.374 76.5412 682.358 77.379 682.341 78.2422C682.292 80.9116 682.271 83.5805 682.25 86.2503C682.222 88.0628 682.192 89.8753 682.16 91.6878C682.086 96.1252 682.037 100.562 682 105C676.72 105 671.44 105 666 105C665.975 103.572 665.95 102.145 665.924 100.673C665.83 95.3712 665.73 90.0692 665.628 84.7671C665.584 82.4732 665.543 80.1793 665.503 77.8853C665.445 74.5863 665.381 71.2874 665.316 67.9886C665.3 66.9644 665.283 65.9403 665.266 64.8851C665.246 63.9245 665.226 62.9639 665.205 61.9742C665.19 61.1325 665.174 60.2909 665.158 59.4238C665.052 56.9295 665.052 56.9295 664.425 54.2519C664.285 53.5089 664.144 52.7658 664 52.0003C665 51.0003 665 51.0003 668.816 50.9026C670.398 50.9093 671.981 50.9213 673.562 50.9378C674.369 50.9423 675.175 50.9468 676.006 50.9515C678.004 50.9633 680.002 50.9812 682 51.0003C682.33 52.3203 682.66 53.6403 683 55.0003C683.784 54.1753 684.567 53.3503 685.375 52.5003C689.598 48.8961 693.672 49.6403 699 50.0003Z" fill="white"/>
<path d="M258 51C263.61 51 269.22 51 275 51C275 68.82 275 86.64 275 105C270.05 105 265.1 105 260 105C259.98 103.592 259.96 102.184 259.94 100.733C259.864 95.5167 259.775 90.3005 259.683 85.0842C259.644 82.8252 259.609 80.5661 259.578 78.3069C259.533 75.0624 259.475 71.8184 259.414 68.5742C259.403 67.5616 259.391 66.5491 259.379 65.5058C259.359 64.565 259.339 63.6243 259.319 62.655C259.306 61.8267 259.292 60.9985 259.278 60.1451C259.123 57.704 259.123 57.704 257 55C257.33 53.68 257.66 52.36 258 51Z" fill="white"/>
<path d="M270 26.0001C272.753 27.7957 274.526 29.0526 276 32.0001C276.373 35.948 276.349 38.3305 274.5 41.8751C271.142 44.729 268.361 45.2949 264 45.0001C260.738 43.7236 259.444 42.7269 257.625 39.7501C256.794 36.0936 257.013 33.6191 258 30.0001C261.614 25.8551 264.625 25.2322 270 26.0001Z" fill="white"/>
</g>
<defs>
<clipPath id="clip0_1237_6299">
<rect width="755" height="134" fill="white"/>
</clipPath>
</defs>
</svg>
