<?xml version="1.0" encoding="UTF-8"?>
<svg version="1.1" xmlns="http://www.w3.org/2000/svg" width="1200" height="800">
<path d="M0 0 C396 0 792 0 1200 0 C1200 264 1200 528 1200 800 C804 800 408 800 0 800 C0 536 0 272 0 0 Z " fill="#FEFEFE" transform="translate(0,0)"/>
<path d="M0 0 C0.72680969 0.0028299 1.45361938 0.00565979 2.20245361 0.00857544 C4.51534751 0.01973727 6.82784888 0.04483399 9.140625 0.0703125 C10.71223398 0.08034749 12.28384904 0.08947244 13.85546875 0.09765625 C17.70067122 0.11966346 21.54558164 0.15416535 25.390625 0.1953125 C29.04615778 16.05666419 32.59039804 31.93064743 35.828125 47.8828125 C38.27071089 59.91072654 40.83747945 71.9051076 43.515625 83.8828125 C43.68448212 84.63871674 43.85333923 85.39462097 44.02731323 86.1734314 C44.84408816 89.82863354 45.66226169 93.48352057 46.48144531 97.13818359 C47.79273624 102.98875835 49.09901404 108.84035743 50.390625 114.6953125 C50.70217529 116.08302856 50.70217529 116.08302856 51.02001953 117.4987793 C51.29628174 118.75621948 51.29628174 118.75621948 51.578125 120.0390625 C51.73667969 120.75255859 51.89523437 121.46605469 52.05859375 122.20117188 C52.390625 124.1953125 52.390625 124.1953125 52.390625 128.1953125 C42.160625 128.1953125 31.930625 128.1953125 21.390625 128.1953125 C20.400625 124.7303125 20.400625 124.7303125 19.390625 121.1953125 C18.83375 119.4009375 18.83375 119.4009375 18.265625 117.5703125 C17.390625 114.1953125 17.390625 114.1953125 17.390625 109.1953125 C2.870625 109.1953125 -11.649375 109.1953125 -26.609375 109.1953125 C-27.599375 112.4953125 -28.589375 115.7953125 -29.609375 119.1953125 C-30.929375 122.1653125 -32.249375 125.1353125 -33.609375 128.1953125 C-45.159375 128.1953125 -56.709375 128.1953125 -68.609375 128.1953125 C-63.79010608 115.91090153 -58.73382545 103.76782984 -53.45556641 91.67431641 C-46.97137996 76.79872013 -40.63957943 61.85807807 -34.30099487 46.91998291 C-31.50385314 40.32799433 -28.69620489 33.74070633 -25.8739624 27.15942383 C-24.67221251 24.34259958 -23.48828625 21.51886546 -22.30712891 18.69335938 C-21.61296869 17.06351912 -20.91818967 15.43394221 -20.22265625 13.8046875 C-19.92594528 13.08041565 -19.62923431 12.3561438 -19.3235321 11.60992432 C-17.45069151 7.28039215 -15.55956786 4.77655856 -11.609375 2.1953125 C-11.00319336 1.78684082 -10.39701172 1.37836914 -9.77246094 0.95751953 C-6.54827569 -0.17858728 -3.37389605 -0.04966885 0 0 Z " fill="#23366D" transform="translate(755.609375,335.8046875)"/>
<path d="M0 0 C7.66746582 -0.09307905 15.33487233 -0.16395587 23.00277615 -0.20724869 C26.56414829 -0.22803754 30.12513114 -0.25619285 33.6862793 -0.30175781 C37.78958669 -0.35392533 41.89249139 -0.37301694 45.99609375 -0.390625 C47.26206894 -0.41127014 48.52804413 -0.43191528 49.8323822 -0.45318604 C56.96000987 -0.45497971 62.91439379 0.01768392 69 4 C73.1638488 8.57417962 74.14634586 13.60103623 75.3125 19.5 C75.51343262 20.46542725 75.71436523 21.43085449 75.92138672 22.42553711 C78.29698944 34.05390812 80.39890495 45.74138911 82.5012207 57.421875 C84.16713201 66.65633953 85.96014705 75.83918901 88 85 C88.33507568 84.15969238 88.67015137 83.31938477 89.01538086 82.45361328 C93.33277422 71.63140544 97.66197008 60.8139522 102 50 C102.37106873 49.07491638 102.74213745 48.14983276 103.12445068 47.19671631 C105.41275387 41.49398754 107.70573231 35.79316728 110.00393677 30.09442139 C110.74718783 28.25004191 111.48928691 26.40519777 112.23019409 24.55987549 C113.27785682 21.95137052 114.32981956 19.3446383 115.3828125 16.73828125 C115.68962448 15.97186813 115.99643646 15.20545502 116.31254578 14.41581726 C116.75555779 13.32307243 116.75555779 13.32307243 117.20751953 12.20825195 C117.58386032 11.27406181 117.58386032 11.27406181 117.96780396 10.32099915 C119.52309473 6.82376761 121.28830156 3.42339689 123 0 C134.55 0 146.1 0 158 0 C154.83048668 8.24073463 151.6276717 16.39601514 148.1484375 24.5 C147.69622833 25.55887421 147.24401917 26.61774841 146.77810669 27.70870972 C145.81212325 29.97010747 144.84513096 32.2310745 143.87719727 34.49163818 C141.30668608 40.49503302 138.74345924 46.50153719 136.1796875 52.5078125 C135.79058575 53.41900534 135.79058575 53.41900534 135.39362335 54.34860611 C129.2839354 68.6567457 123.23674205 82.99106218 117.20458984 97.33203125 C116.65313797 98.64133102 116.65313797 98.64133102 116.09054565 99.9770813 C115.42691857 101.55274394 114.76412682 103.12875895 114.10256958 104.70529175 C110.81545928 112.50727769 107.39463315 120.24083851 104 128 C92.12 128 80.24 128 68 128 C66.77774342 124.33323025 65.64719443 120.83996183 64.703125 117.12109375 C64.46980469 116.21109619 64.23648438 115.30109863 63.99609375 114.36352539 C63.74988281 113.39793701 63.50367188 112.43234863 63.25 111.4375 C61.27803313 103.77730727 59.2146143 96.1559847 57 88.5625 C53.9282686 77.99675109 51.29600159 67.33387346 48.65966797 56.65283203 C47.19063664 50.7451731 45.61682177 44.86893573 44 39 C43.81083008 38.28166992 43.62166016 37.56333984 43.42675781 36.82324219 C42.82037054 34.52365762 42.19319811 32.23052228 41.5625 29.9375 C41.38130615 29.23439697 41.2001123 28.53129395 41.01342773 27.80688477 C39.3844389 22.02720737 36.94272775 17.80297343 31.66015625 14.56640625 C21.27249359 10.55192609 10.64008122 7.27638379 0 4 C0 2.68 0 1.36 0 0 Z " fill="#22366D" transform="translate(391,336)"/>
<path d="M0 0 C-0.6185155 3.20961825 -1.24597644 6.41742598 -1.875 9.625 C-2.04902344 10.52863281 -2.22304688 11.43226563 -2.40234375 12.36328125 C-3.32376667 17.03864938 -4.3461286 21.51517755 -6 26 C-7.45833333 25.70833333 -8.91666667 25.41666667 -10.375 25.125 C-11.75945312 24.85429687 -11.75945312 24.85429687 -13.171875 24.578125 C-14.89762012 24.22534837 -16.61861085 23.84638523 -18.328125 23.421875 C-28.85599733 20.91523873 -41.06627955 20.29455347 -51 25 C-52.20190901 28.60572704 -52.32670315 31.2102435 -52 35 C-48.88687699 40.07930597 -44.55443435 42.2060062 -39.4375 44.875 C-37.81641961 45.74891576 -36.19662364 46.62521828 -34.578125 47.50390625 C-33.79373047 47.92816895 -33.00933594 48.35243164 -32.20117188 48.78955078 C-25.55095108 52.44658214 -19.02433074 56.21440703 -14 62 C-13.319375 62.721875 -12.63875 63.44375 -11.9375 64.1875 C-6.63617901 71.88296596 -4.67722741 79.71758714 -6 89 C-9.308809 101.15107305 -15.45532386 110.42593392 -26 117.3046875 C-44.97157449 127.91032463 -69.14890111 128.86620848 -89.94140625 123.93359375 C-94.19010188 122.63673774 -98.04146969 121.0139891 -102 119 C-101.32969264 112.90373091 -100.23964287 106.99077746 -98.9375 101 C-98.75123047 100.12988281 -98.56496094 99.25976562 -98.37304688 98.36328125 C-97.9183875 96.24153748 -97.45962195 94.12067429 -97 92 C-92.1223212 92.86076685 -87.60679127 94.4425418 -82.9375 96.0625 C-76.9934045 97.95955176 -71.45139929 98.24369749 -65.25 98.3125 C-64.3940625 98.34150391 -63.538125 98.37050781 -62.65625 98.40039062 C-55.58755514 98.47000656 -49.35151849 96.94527383 -43.9375 92.1875 C-42.51803724 88.87542022 -42.50013262 86.56155507 -43 83 C-46.63319969 78.66917071 -50.72244798 76.22835185 -55.625 73.625 C-57.05332917 72.84341828 -58.48040882 72.05954889 -59.90625 71.2734375 C-60.60234375 70.89026367 -61.2984375 70.50708984 -62.015625 70.11230469 C-66.47698069 67.61157431 -70.76984747 64.87124343 -75 62 C-75.59167969 61.60683594 -76.18335938 61.21367187 -76.79296875 60.80859375 C-82.20864728 56.8129646 -86.89478101 49.70582308 -88 43 C-88.82539547 30.2539892 -87.07275608 21.02198648 -79 11 C-60.3494175 -9.40298622 -24.05806061 -11.2417901 0 0 Z " fill="#23366D" transform="translate(695,340)"/>
<path d="M0 0 C1.39120471 0.00015906 2.78241534 0.00585033 4.17358398 0.01586914 C4.90463852 0.01728409 5.63569305 0.01869904 6.38890076 0.02015686 C8.73253406 0.02577131 11.07607313 0.03832617 13.41967773 0.05102539 C15.00496282 0.05603853 16.59024939 0.06060176 18.17553711 0.06469727 C22.06945383 0.07574542 25.96329979 0.09301967 29.85717773 0.11352539 C28.62939453 7.75703697 27.26497794 15.35082456 25.66967773 22.92602539 C25.45754639 23.94027588 25.24541504 24.95452637 25.02685547 25.99951172 C23.10315509 35.11361623 21.0408661 44.19534692 18.96893311 53.27664185 C16.53253122 63.96677862 14.2597128 74.68347612 12.06762695 85.42675781 C9.66532393 97.15959284 7.06545593 108.84604374 4.42626953 120.52758789 C3.87128692 123.04941363 3.36358327 125.58149771 2.85717773 128.11352539 C-8.36282227 128.11352539 -19.58282227 128.11352539 -31.14282227 128.11352539 C-30.16427476 121.26369282 -28.86354007 114.57036092 -27.45532227 107.80102539 C-27.05494751 105.87093628 -27.05494751 105.87093628 -26.64648438 103.90185547 C-24.70843511 94.61273281 -22.62239141 85.36220812 -20.4621582 76.12231445 C-18.47639092 67.61298134 -16.57061778 59.08744823 -14.70532227 50.55102539 C-14.56125946 49.89257629 -14.41719666 49.2341272 -14.26876831 48.5557251 C-12.53807444 40.63669107 -10.84182942 32.7109355 -9.17797852 24.77758789 C-9.01711258 24.01219193 -8.85624664 23.24679596 -8.69050598 22.45820618 C-7.90982244 18.74270469 -7.1331193 15.02645896 -6.36376953 11.30859375 C-6.08452847 9.974011 -5.80515734 8.63945546 -5.52563477 7.30493164 C-5.28216309 6.1313208 -5.03869141 4.95770996 -4.7878418 3.74853516 C-3.90477134 0.1410486 -3.90477134 0.1410486 0 0 Z " fill="#22366D" transform="translate(567.142822265625,335.886474609375)"/>
<path d="M0 0 C2.01868039 3.02802058 2.60839611 4.95202642 3.40234375 8.453125 C3.65161621 9.54101318 3.90088867 10.62890137 4.15771484 11.74975586 C4.41504395 12.90483643 4.67237305 14.05991699 4.9375 15.25 C5.33509521 17.00679077 5.33509521 17.00679077 5.74072266 18.79907227 C11 42.18782532 11 42.18782532 11 47 C1.76 47 -7.48 47 -17 47 C-15.05305256 40.51017519 -13.06231822 34.23064779 -10.64453125 27.9296875 C-10.33803146 27.12258331 -10.03153168 26.31547913 -9.71574402 25.48391724 C-8.75125436 22.94635696 -7.78197424 20.41065951 -6.8125 17.875 C-6.15137261 16.13814265 -5.4905626 14.40116444 -4.83007812 12.6640625 C-3.22371016 8.44130532 -1.61304804 4.22020973 0 0 Z " fill="#F5F6F8" transform="translate(756,372)"/>
</svg>
